<mxfile host="app.diagrams.net" agent="Mozilla/5.0 (X11; Ubuntu; Linux x86_64; rv:128.0) Gecko/20100101 Firefox/128.0" version="24.7.6">
  <diagram name="第 1 页" id="iqxRATVglln-x2kgAe6q">
    <mxGraphModel dx="1766" dy="548" grid="1" gridSize="10" guides="1" tooltips="1" connect="1" arrows="1" fold="1" page="1" pageScale="1" pageWidth="827" pageHeight="1169" math="0" shadow="0">
      <root>
        <mxCell id="0" />
        <mxCell id="1" parent="0" />
        <mxCell id="IP9OFeGjF-sUPNm7fkB5-3" value="" style="edgeStyle=orthogonalEdgeStyle;rounded=0;orthogonalLoop=1;jettySize=auto;html=1;" edge="1" parent="1" source="IP9OFeGjF-sUPNm7fkB5-1" target="IP9OFeGjF-sUPNm7fkB5-2">
          <mxGeometry relative="1" as="geometry" />
        </mxCell>
        <mxCell id="IP9OFeGjF-sUPNm7fkB5-1" value="获取左右车道线长度" style="rounded=0;whiteSpace=wrap;html=1;" vertex="1" parent="1">
          <mxGeometry x="250" y="90" width="120" height="60" as="geometry" />
        </mxCell>
        <mxCell id="IP9OFeGjF-sUPNm7fkB5-5" value="" style="edgeStyle=orthogonalEdgeStyle;rounded=0;orthogonalLoop=1;jettySize=auto;html=1;" edge="1" parent="1" source="IP9OFeGjF-sUPNm7fkB5-2" target="IP9OFeGjF-sUPNm7fkB5-4">
          <mxGeometry relative="1" as="geometry" />
        </mxCell>
        <mxCell id="IP9OFeGjF-sUPNm7fkB5-2" value="获取左右车道线C2系数" style="rounded=0;whiteSpace=wrap;html=1;" vertex="1" parent="1">
          <mxGeometry x="250" y="170" width="120" height="60" as="geometry" />
        </mxCell>
        <mxCell id="IP9OFeGjF-sUPNm7fkB5-7" value="" style="edgeStyle=orthogonalEdgeStyle;rounded=0;orthogonalLoop=1;jettySize=auto;html=1;" edge="1" parent="1" source="IP9OFeGjF-sUPNm7fkB5-4" target="IP9OFeGjF-sUPNm7fkB5-6">
          <mxGeometry relative="1" as="geometry" />
        </mxCell>
        <mxCell id="IP9OFeGjF-sUPNm7fkB5-10" value="" style="edgeStyle=orthogonalEdgeStyle;rounded=0;orthogonalLoop=1;jettySize=auto;html=1;" edge="1" parent="1" source="IP9OFeGjF-sUPNm7fkB5-4" target="IP9OFeGjF-sUPNm7fkB5-9">
          <mxGeometry relative="1" as="geometry" />
        </mxCell>
        <mxCell id="IP9OFeGjF-sUPNm7fkB5-4" value="车道线长度及质量满足阈值计算左右车道线曲率半径" style="rounded=0;whiteSpace=wrap;html=1;" vertex="1" parent="1">
          <mxGeometry x="250" y="260" width="120" height="60" as="geometry" />
        </mxCell>
        <mxCell id="IP9OFeGjF-sUPNm7fkB5-6" value="" style="shape=image;verticalLabelPosition=bottom;labelBackgroundColor=default;verticalAlign=top;aspect=fixed;imageAspect=0;image=data:image/png,iVBORw0KGgoAAAANSUhEUgAAAuYAAAAwCAIAAADSAygfAAAACXBIWXMAAA7EAAAOxAGVKw4bAAAgAElEQVR4nO2dd1wU1/r/nym7w7LLsrRFyoLSkUUUJCoYFWwQC9iQJFf9miiWWJIbbnJvTExiYmJy9ReNJJprEqOJDY2KlcRCLGBH0UWQJixFWfpSt8zO7w+KIHULIua8X/7hDjNnzpyZ8znPeZ5nzmDOw9xAVxwdHFgyTCaT9WTnsQF15ZX4vftGPdm5XF2pc60QCAQCgUC8eOB9XQEEAoFAIBCI7kEmCwKBQCAQiH4Apk9gCADU5QpDVQWBQCAQCASiM5CXBYFAIBAIRD8AmSwIBAKBQCD6AchkQSAQCAQC0Q9AJgsCgUAgEIh+ADJZ+g1Eta/Xz7mrz+W+PtVEz6KovDC/uNyVF65PHcY2SN0QCMMiHTI9b+mCvOGCvq7IC4UBNQRTWYk+yl19LnfRYi+D1A3RHobnk7doYV6Ej4Lo66o8N5B9XQFDgqtcBiyMcOAqyk5tyszXtzSjvMWjMtYMaW3UaRSa2uKKh6n553ZcP55cj+lSLPVocYCkTbGYUlFbIa1KT7j/+w5Jaome1e49aNf5o4PsydK/rh5OUnWyDzb95KrVXqA8+seUt9M1z7R6/RWcYzbM2X2wyyB3RycXoaUpyWD1Dz5c+8NNA0wnWEPHTI3093EVmrLVyjJZ3rWkU7tu5NbpX/DTCCO375wn0uTsWrU09iFL7+LYboyfBdRnWNzrYElJ2sR2cMiwYX4uzgOFfC6JK+trC/LSLl85fyS9RK3vmXu3xczmb9k7LnfV/32T+TedK77AGoLZhHlGRnj7elta80lMoSrNLE6OTz1yID2rlaTbhQyeHOI0zE84SMhnUXS9tDIzOfvMjht/pnbYGliNBB54gpf3Y88MR0n9s7qU55oXymQhi10sZkT5W8ilKVsz85WGPwFO4SYOFkMcLIaEegWvP/T+Dlln3U4bGDZlbO1qbO1qMyZy6J6lB3Z20plJRf2j/CqKqa7umxfLMafwl+b6UjnylENJqr+p5Boehuc/67MpXjqZv12Dhyz8zwoPs6b5Gcm2tnWdPnuVn+Pufx68Izfk+XDaf/Z0EeC1dw4dN4C9AkTe0CHAxiAlldf+SWf5v7Z79sjWa2iTHFM3j5FuHiODb+xZc/Bmue6X9sxarM9AGtIbMBR3wrbw6GDLJz5riiUU24eI7YNd1FPfzqIBAFSem5d9F85lmg8CwE0czH0dzPxCh4xZH7t2d3kH9hntcCdD6uEDPuKG9BtGelvkLwAvlMnSS8i+H77vaDUAMDjFtfZzmBg9ep6X8dDoKXPP7/wtW+diS7713ntCCQAER2TqHeL9xsqhTnzBwg2TU6ecuF7dfn+ak5qz5uUcnc+HeF4h6qtLpIUP07NzCoSjlvs7GMIJrLQb89ZbHmYEKG7G79p66X4ZCEZOjnxnjIed/4LVmbmfplQacMB4ZcYEARCPzsderAPQe2gnHGGwCUAR535HX+3ASZICZVH2vbO3U5Lziorr6wVC14njw8KczQb6z1tTLH37kkynBuylFqMClr3jfmf3r1eKnhpvMLMhEYsmVe3aGN+jD54YBKQhvQFn6OZZa4LNGKBz9l/5JfbB3dQGJZ9yCR40Ya5/0JPd2ASfxBR1qafT/0rISU6trFTgwgDR6yvGBorYAWtmLJX89H1y+8LxykwoFoOte7FLimN6L8zD+xvIZOkeTK0AWgEAGK2oK0jIjMlv8DobNowSBgbzd2fLdZV+jIbGYumarPIrMUkX5fjJdUNMHFzDglnX4wzhvkH0AzD5xe1zL2JqAACNebDfckMUypD2c8YMJoEou3Hg8/NpCgwDqEo8udlEuHG1B3fUuAmiO4cKDeM2wBUec2b6UKDMPv77PcYAZZa5egKFwaMcS3lHf9YUpWzccvRcUW3LqSqrU/6Xl61c/VmkkBa/FOx2cX+29tXopRZj2OaW1s5hH24PvHHsu+9/zQUAAIJt4jl92ep54wbU3j80wISRVb8QHpy/J6yqMJ8PQs0YIB5s3bd6U7PfvUSdekCSeuDu7y5cdZMZr6yMu7zi/Tah/4oDD/4lqd9yeLo/ZRI632N7cvtAGENUm6bJqmxswdNZnZ6GBmxDtgBhHuIxL8Ld19vSyorDUtQXZxbfiEs5vDs3v40TksoLG3Zvy3C+NGvFhPgMsfMb0b5j/WwtKbpWVpV+PnXnx8lpCjzo8JIPfTlluw5EfFz41FmqvBx/PTnNE+r2TNnxcyq0xD5boPkD12esbvnFkmYvmXA6rY19ig/YELE3Uqg6/WfoskzLuUOXzB/s52JuQmkqM4tvx13dGiOt6vQyaeP8ynw5DOPTXD6HADkD7NoV4y9GO3OluasnnLj9tCGseXnvW58EUHVH42e93YWVrIbTD+6tGxIAhKOXORZX3Ow/bKyqNfNkz9JvvPec6MANAwAYzTcJ/WD07PH29lbGjKzs3tFrm2Nkcy8vmM6HMwu3bEhofwhlv9h31VxPDxc+S1FflJix+4uEC1lP/poXJr6zZTTvyf4Kp+iFCdEtP43vrN347m5dDCyGojzC3YLGuXi78K2seQI+qGU1uRJpwo83f0+qbtV1MZWV/bobM8dB7f4pv+wVui1d6T/KS2AKyjJJ4cmYM7sT2icVYTSfClw8YlroQHeRwBSYquKSB/H3fouRpHU4DPYxmKH9vRjjOHSkCQBUnku8rXjSOsZnrlx7w2O8ia1nkBB+M1DWVOC0GSLAapMOHpPp72LBaJMaNyFgNOTldzwXUOVJzrc7D6au/FOSFxHsCEJrFyPI1jrq0VsthikfHftk+UWfSYvfnLfuhxGSfLaGN3h+zI4h5jXXjmz4ZN/Fxyp92owKO7t0lYvxvbVbVh1g/FeMmh/u4irisBTqYon0wo4LP8Q3Tqh6W0NIblAXvfJ50BBoHiY4aeu/XZ5gvPDd8RMCLa35eJ20JOnXi9/vKKrpoB16oiHMtAXDLEGDZ97fsrV9ngBekNXSDqyCOEnB0zvQnNTsU6ng76s2cbEcwEBRB0+DIK+gSmMDQqcy0zTrzgcmAKCtQ9+JGmEBQBed/ubHay+kKWwgk4WhjEd+NeWTcFs2AACmVND1FMdGPHC62H0I/6eFm8o6kh+SE+q79euXnajGnwRXaO4XKb65MTlNQR4/nfG+r+eAoCGe6wvbWhuEaYjYHWhCknlG0ihdWFnmo/sMAABGcdxcBQQ05EsqmvujhpVfplB0JqZGAz8I2RLlYtz0Exe4Wo8Pc9qzVVrV6d0mGlzMXfkAgBUXlDMAAGoy7u7VlW5jHJxeCWbdjm/93OIKkSjEjw3AJMZld+3VwxWEEgCAIYBsJS5QX1B+P1XDMIBRXCdXPtVpAZjKird83+uRLmwA0CjoeqG5f9SU70V3b3d6COm5bvoXkbZswNTAkJTRwGDxxy7sf0/5ozkyRXNLqu+nPuIxAIDzXa3tKUwpLcmSt1wjka+jW5uShoiPfdUkZBoFU6OguUKBe7DAPdgzYOOh92La93/GOGTk9yv97AFTA4MD28pv4MLt/yBf3bGzjUMVY1wGvLcz/BVRYzsoaoEycxCOjBr/Usigr984fibr6XJfOJT2ji4mwGD1DyWFrd8KZFR59zPU4/1IK09HLlNSq7eiYSrrCbMDTBgoPhX3F20IgWTZgxAAKvAC7ZINidr6GgwYUINKl7GvV1tMVZly8r+rzh2a+c7nb44GwJ2zDr/37x0dhr10g6FMJv48bU1gc54ERdr4OU/JTPshvml07U0N6bZXPlcaAmAv+uRwyFh+0y8TB+vJa+bYwm+rdrQepHqoIZjKyjrIiw3AKky4m6Fj1IZuqFQCdBHMxBSPoBLAwrLBkQ13uzoLzbUT+3pbaIDFu8WjofpF9MkY5prIgZ++8nm4LQ4qya5L235MT89XARD8AMewRaMDOz4EY4zMXlvjPLD40aEfryYklZUAy9pv0OT5jhoAADUrPuNWtHikg+N4MaS1GZCYkOBBOLCkCffysEZt0SS+HZsIAMAuCHG/tn2chfzx9plxV1vf2o6VBmNcvN4LHdBw6/auHanXs2oaKJ5zkMNcX25n14nxSXu/gWFrJnqCBpPe//1UY4/QUPmPjyXWjg3mjg5xZse3dqWQ6jCxL0WzpFmnEruWUrImyGYoQIsl1FxlTVXMnytiAICo9vU4eHiCY6clUIPXzXjVhcTlFUc+Ov6/uIo6iuO6ePTn0eJxHe+Pq4V282bQN9cf3ro7vxgo0fzA9Wu87R28X5tx5eruxvmZ2jIp4z9TMhprMvnwO+/5sgtij78Vo3M4rAWGUNDFSalH4rIuJhXm5KsAAOMLhq4IeD/KxWdl2LyERhdaa4xCooaX7D+7YpMkrYTkBrmu2TJpBN94zmLxb8skzY2L0XyzhTsjXhHhdbfufbf+ckJygwLAyNdx/mcTI70GvffpiPuvXdPWw0+wuUYspsvEUkwFqoZaJa1dwb1Ema21DQ6gqSh7iAGAWiB0Eqkf3y1X4vXSIjn4mePWQiHAQ71PRDjPnOXDBkXKiSMPDJDFAlBvZwMEBqoycy0H9Do3O0cMgJEVPqB1qElvt5iJ58xFiyNfNlEywG7g+ISseKv+px0Hb8oUhjDzaEFYwNtiTtbRK3tjs9Pz63GR+bDJQ0JA3fsaAj3olc+VhjQ4R05wlNz/fO3li6n1mIvw9S3TF3gZ+c7zH74rPrlJuHuuIawiP6vBFAAoM5OLGdAFhjLzcGUDYJWSxwVYh6uOMFglyJRgToG1EKCdo+ZvhgFMFqLey/GdGXY44DlbD0W3BPOAlifl/Jr08JQV2dFtwNVCgbf04UczjyWWNm0qy7p9/0AyCRiAhsp/9EeqcqQvNzDELia5JTZE1LrYTPYCgKq/4jv03GgHy1Voc/7skoUpj5s6d60stfgKMCTWWkmsVt1bvarVb42iJvv03T2bEq8+8awSJ+Lufhg8wiLYZ6xJ+pkn25lZoW5sYEnjb9/r3DomrXiuoZ4Lo0cJQEPIc06e0uH1aaLWxXxRsBkDkLzx6DdxchwAU9RnxVz6yMvmh1CzTrqTsWzX7rU7ihkADBQFOy5sHuW0KZjjPcqR2GWQvIQuUNrH34mKb7OJkVfe/uL0D+KlHwaYjgux+DH1qVtMEJIr/3lfUogBgLo2IXv1/zIuRrtw/QYOY0uuNzUvi1g85lWRBs9Mff/Vs/eb27whOX/r0tM2Z2ePCRw2w+9aTAdpbl2gtnvz//0w1b7r9y3x2qtrXvss+bnI6ScsTHgADCaXlwJt5j9v++yX+FB/6udPvn2gKm0AAJpvKmAYwPS6xZiG6/N6kL0G6i4dPlGBGcJiAZm5KQCAvIrSxvjD1ObDZ4l5AMTdaxelWFcz1k7ovRYjrQLmLJ4/52Xr8qR96/5j9OrGcQ/Xbs4evfy1z3+YdP3E7p92n5Xqm7emcBCL0jbuf6fFqZBfV5RUEE9pe0d005Ce9MpeQgcNoTmK0vVLziQ0DjpZZTEfJY44PMndwd7PFZKb7JueawjGEpqZAwDUFem4qAapCh8aJgKA6j9jszod0WiqtFoBFFhYqKDAAO/k9WcM8NoAJgjx8qI0pCx7VwfBPKaspLMeSdz67szl0qc2tsT18VOnM1SgHBDk6fGkr+CckMHilqiQvjCYovLg+hZ7pX0dOganjIz4HA7V+tFR2sY/OF2C03yHSa9wmutL1HuJpnoBQNX5uPY2uOU791afy119Lnf1HzfejFkX4McHRi4/sPr0n0+3SU8gqwKcfSgNIS84caT19IW+Fnv7UadHlZ470LpixOXkAhoYQmRqo0MVDANxK7MCA5WVyKqdOc2WxN0teHKzaE1Sdj7gaiHf5omnGwsLdWQDOzX2uqSNXGqo/PyEVADg+wRY9J/FHnTDiEUCAKZRq1RQMchlMB8AwHSwox2AUqUCAIZNsnSbFLaCEUx9dSQXIP/M/usG8RYAACMwBgCoq9PK6qBmzH5tKAnqojPbruj2ulBvtRjDdpixKNLt8cm1S95aF3u1CAAAk985vmXp4n/tl1hPXTJnuIneN4JmSdO2/u9p7aW1TujRTUN60iufMV1oCF5/PuXcE4GleakyiRwATG1ELRt7riGMaVOQTSPvMsekE3CFyHxttJ8AyOJdf/3U1TyKX1sPAMDlKbt8vNk5P0bNmDVr1qzp7x9/9CJGhcAgXpZ6Hy87HEAlybmmhU3NYIqKK+e6cCc0x4ZcXYL8zqY33U58Uqg7DlT2k6iQPmjwzIcXsrp1I5d86703rhoAAOOzrf3sJy16+R+Bnv/eZ2Uyc9/B5sQITCE/dqr4tQXCodPFgv03GlNhBoT5uoMGu3XvpKTbs6gLjl7ZsDY5Ta7bbFU51NmODQxIi9Plrc+lNpGU5QAM6OAQDSEvy2kzOcBL5XIAjKE4HF3qoC0YLTKbssg3ONDOSSQwayVwDNAcPothnmq0amlWmwcGlzfUAgAQHFOAamjMHBwiAgCwiQj5Luyp09E8BwBQWViZYFCmTT1J6bYlodu0OaKPUbRa09jyXtKfqc7TB6oyj99+aEDHGcN2ipzsSQLc+v2wFNfBsdERBLDZAABKpRY19Q5fFuXMxeoffr/7eJ6OV9hbLYYps35b+fovtTXKpwWgRnLg6+UnuMa1+mcUsUuSMtOV+nu5dNAQ6EGv7FW01RCqIKtE3WaqXiOvAuATHFMWgEpLDWH00EmM5vNmb5810QoUt26uW991yjipUgIAkMY0DvB8RJ/7CgOYLMbm1mwAXJ7fvlt2AUNUVRV19fpGS2yIFxhivT25mAGi1sUmxAsAKhINERUCAJBVaeXPY+TKxwk5u5Lyaw4vestLuPBd8YllLWsS4tlxKekLJnoM9wgV3dhfAAxFTgu1w4F1N+7+ow4MrJJvh8eergaGYg8IsF+4JnRseEC0rGrVF9m1ulwJLRDyABi8Stl2NGZIubpMAdDRjAdr0HRyrq7zNgwCofB13PTLtBF8AKDrpBXZ8gYFAADDtrZ0scKfykEGAAC6tuOpTMv0F28QGptTAKAWuNp0stQ7g1Pk0zr2osHUqgGAwUkWC0CVdyn680vNf2KzWACAKdUq/VoAJ8fNmWTN4BWXfk8oNdRq4gzRfF96qsoapzHLPh4lItXlB37efqpC59vaey2G19W2exmlGU1t53/TApasTfabzuiiIT3olb2HDhqCKxR1HTUU0zwSaqUh+GN5o6WB8021yzJhKCp4c/g7Xmxa+nDDkgvdLbiCNV4IjmlemPX3dKXPnEcM1qDobhls/NTpjA98B9sFeQ5cX/wQIyDE06vNu0J6gisU9TgG2oYJMAX26+mHy7xcjQPdX2JLLjQ9bbRJctax1EnuXjbjwy32xlSV+3lMEmkIeX78qQ4TzTBaoVYqABTq/PjsNbIT2/ZN9Y6avDJ5x4Z4vYLbz0U2RfeQEV9PG8HHGiSpG9//K+HJetUk/9PZRxdY6Fe44tDM7ds6d7Rq2+0JtsC805zsFtRVFTXPx1JPdFl1DQCX4fMtAdqGGQlLIwAg5FWV+iWy8GZNHcMBVuax2Dtqg9l/GA1qGoAEvEefvlIN8F+wfoo7V111ZnfMT1KlHmr+DFoMAJi6xEPfSctLDDzs4Aq5ngbo0yAN6ZmGMCpZRTmAZWNc6elU3y7gDPlqxppgASN7tPWNYxe7zwTQEAQAgFpNvuhB7W4xgMlSV16sBC+SL+KxAQy6AtqT2NAE8V87UtVTgweywdhAUSF9wEtLymnAcb6xTZsUbuzQUcnbXp6uId7OWy8Pmu5jD3hdYuq57p9ImkrO++ZI8c5Iq4krAg+c/kt7fzReJ6sBMNKYsq0Bip5sx9R8yqTPgsqdQdR72U10AYC6/avPJLRZQZixFvI6OapbNEayunIFAMW1Eupdxyeo7d78ql+l31oUFT/SgAthZjGIgdJWz5KG42DLBwBNsUyfJVdx2j9iqjPgtcmHjhsy2AQ01CoBSDCiNN0ZlrTF0DkbZvsLoPZS7LZvHui5mG9vt1gjmCL70gnd18vubZCGgJYaorK99ThLAZYU5uZrjcX38KUhttunU78Ot2DLK3YsPXKsR2su1HAbA6bVyGQxwMjPSUkt1ACwxE4jDPxZYA2VX3D2lhJA8HLIAKXIboIXG6Ai8WinUSEaCDVAKy9fL8Gw+VwCAADTNLTerqKOpiQqCFrs8Uogb9p4MwaYxLgHPTPjmPs/Jt1R4CD2/r9wjvY+Vep6dqESMHCw9uC33k4+Fgs8tC6tQ8hmF4L+USO8VMi3Ag0hL5O2jcwxFGeUmKurS5kh5BXp+QCgGTpqYO/7pZ9b2AV5WdWAMZxBYrvW2zGW42A3EgBK0vL0SaEgJ8x4xRKIkvOHLhj4E4u8qkoAAJ5p12mGGhOP6RvmjLUGxc0j275Kkel9r3u7xfoFSENASw1hWCWys6lKAIVd0BC3Hg1/uOMHEzctGMCRV+9Zun9Pcg/n+DV8HgBAZRW765ApJrB1d3cf7O7uJmS/oAJoAJOFqYxPTVXgaqHzgpXCdk8izuPr83SyjidkqKDBIchjSIibH0UTkrSznZqlGq5cVQuYhuJZ9O6cgI4I8sCBZknLM9uuhMgqkR0/X4sBb8ynoeOtaJY04/T5Hj6UNDeraNf5Wgxg9OIRTlo/bmrTpOwUBU7z7afO4LeyxDVBYcMM9PqPWt6gBFCbWhnpn/gsqKqrApzm80Wi1ttZ6rkjpos6O6onYMdOP9SA2nzGmEivDv5MuvCttX42SOm2JaFTuiE04tm5WDQc26ioZRuiln01L8S5g0eFwfLuXK0GAMH4wGHUkx3qJo4aYQIMU5Tyl+4uA1zlPHWWDwXK7CO/39Q7VvIUZo/LQMMAT1DfuWpouM5BX86bYE9qUk5s//xqYU/yXvq0xfoLSEMa0UpD8Phdt0sB17h6vB3VfvjT2Lu0nn+SwhUTt0Q5cxV1B1cf+F+n37JuVwoHLEwAAEq7yeEksDGLvvjii8+++PLD2b7KF9NmMYDJQnNS8745UqgBjdPK2Zs+EHtaNRUt8HWcs23uhsV8PXxZalZ86i0FQYud35vnxgLj7IS03E5VkjaTVKQpMIaynhplq7NnsB0MSZFsimRTJGVlbBvgOGfbrPcC2ACENP52u+X5qYS4myWgsnQV8oEqSLiXrE12Q+KvV3IBB/GQ+aHa2nk0N6t01/kKDDS+0TOWh5iwAQCMbBa//Gm4uYGiddQ9SYkGVNahIyd2owgMThkJrNgWHfwzogAAaF5q8fUSABDMXvfySyIAAIYycl8c8Msab65Cn4QQum5HwqF8nOYLonZGLJlr02i8MhQpCnKfv23OnpPhgSZ6FN8rkDwOZc6hzDkmpqzmLfzGLZSgY4eh6UBnNx9nVx9HW35HwoSpCw5evK8G2sJ/7ofBnkKSIUjTwClvL/LgAWBX/roo1d3UIIbPnO4MWM3NuFOGH8WJigKoB8At5baduFlYjsPXzwt3JiH3yt5v7jziNjVdyz+OccfH9WGL9ReQhjSilYaoqbiUDecrMMDdoiO+3+AX6MszoRgjK65nmPdbh9+MWWHX3IMxweKgb6M9TECZtP7YXglt2eaiKFMrspNHHmOEYA2A10OBVm86vpgYJoKizv341FrTKWtDbb2ixsdETVAq6mkw4lAAQOVu1adkDZVfGn9LOTKA5+gAACUXOo8KATCEXBZ7pGRipJXTyohD8+WPZGo1MER+zucLE3N0Vxzh8ptvtftYHVF1/vInmwrb7awSJGSeLhk7zwoAKi/Htt+hC9S8pIwDyWPe8yXHLh5he/pyEYYbzR/15Vw7sulzBNwBAACCufsiJjcdQt7ftHdb01c/VClrjx90jZztIpiz/c3wqpoaI64ZRZSfvnU5cOg4fodn1ApNReyVG5GzRwjt/31p+ZvSmmoFABAZm37779P5whgZOvZg6NiOCmn6MhSmqPlpY0rQVz4DAn2/vDS0Rq7C+BQXQC25v1nC+1ekzpM6hpDXfr80lrc9/BWRTcRXERFf0Q1ywPhE87yoQteSewmMEfr/992Iga02MRyX9z/aAAAAeM2NX2YdvI1r/fSyCy/uiXGOXulhNjwkalfIk7ILb+zecqdS+wKbaquyDo4IsNJA5Z8H/zTUYiytYDAZPKwHsTGILCCnA5Oo3nHYBA8OMAADR/3jl1Htd6iO3bx2Z+eriHROL7VYn4M0RFu01ZCGm28f27A5LDpY4BQ5el3k6NZ/U0qf/H9M+GArAABq1LrXDq176qQaQi799/C2i7Y3obK1BwqDOqlVd8MJzec11pEoq3jM7q9PbNcYKOkDU9RdWXb49RCPeREeQ4dbWPO5UFWVn1mVGn933249X0gmYhMy1gSIWUATksyz3Syjos79+Mh/SkbNDx84SGTiYAoANIviUxSAYd7loGtlDYWZ+TePJcceKOlw0QFMUZuQWDE/nI9LHpzQ/s2m2F33onz9BH5D5gdf25DAMFYWYi+btg1I2optbJv+z67ls5qTnhlWSeW3r+7Jfnf07PFO9lY8jqz86tGrW2MqI28MBVArtV5a6iloblbRx0tPLF7h97LYysLBzAoAwFiuY6IrzRy4sKhKtjzKJ8BLKOCTddLy6wl3ft6UXvjutH/pVU8Nkfr46yk7L873nxLq7OnCNeNjDbKaIllFzq3cy3Fpibqs1Ncfqftj55fFY6ZG+vu4CvnGamWJTHol6eSeG3ly3bVMNWjqTF820CknYtMN4qNtB22fllsw2BMcneoJGefZLkHRGy3W5+BIQ7RHKw1hCHnln2/svhfmExnh7uttac0nMYW6RPo4OT715O4sfZ9hotBJBADwMNO4u8iz2sfNCQPAam/8frTzaET/BnMe5qbP8epyfR/iFw2GouadXbpQRGRs3LUkxkDrx+gOprKy2XBjTgDId47f+dvz+7YC4vkH03CH/2vnJ8Hc2oufv7nhSi99JxajBbmzpoONCnVxUrwAAAJ5SURBVP6Idcz5ey+b9XyANKQPwcAxd34wcGSsgydty7vclWGJV/306TguWXgoesW+zL4eenqJF/Sy+g6yIchzmojBFI/PdBXDenb1qQse6A00S/r4lo5fwUAgmuBNnTGmcYX+xN77rj1DVApv5IGGA2Ln5+KV8b89SEP6kApXT+BgkJNi07W9AoArncReXMBr7x44+qLaK4BMFsOC0SKTf0aPtQSs4fyt+Gf9yU1c5WLz1qcvBfuaNL9th7EC7P8b7W8CZGZccncLLCIQXUOKatPiDh/8aduRnN7VDWNpMhSqwcarsO++dfX3BGnIcwXGCKuG2QBdTN0q6HaOwJiJva2AlJ7dfam+u337MSgwZBg0QzYv/DCY4vE5FGgIeel3rT4/9Kwgqn2d9x0OdQbQKBqKiusYjpGtlTEBeHVi0j/fuJaD7hSi30CbOhV4CKA00zG7179Tg2gBachzhYbnmO9lARU5jhmVfV2X5wXC3EavdY019SjYDADA2EYEhnsY4Qr145TMX949+XtqH6xSiKuVaiAYiuDwjK2FPGNSXZpemLDj3Gfr7hchrUH0J3BFhaDwkaACTeufLUhDnicwZZWg8JGgrKH7Xf82IC8LAoFAIBCIfgDKZUEgEAgEAtEPQCYLAoFAIBCIfgAyWRAIBAKBQPQDSJSMgkAgEAgE4vkHeVkQCAQCgUD0A5DJgkAgEAgEoh+ATBYEAoFAIBD9AGSyIBAIBAKB6AcgkwWBQCAQCEQ/AJksCAQCgUAg+gHIZEEgEAgEAtEPQCYLAoFAIBCIfgBuxPR1FRAIBAKBQCC6A3lZEAgEAoFA9AOQyYJAIBAIBKIf8P8BPWzBa9iZGEYAAAAASUVORK5CYII=;" vertex="1" parent="1">
          <mxGeometry x="394" y="276" width="432.83" height="28" as="geometry" />
        </mxCell>
        <mxCell id="IP9OFeGjF-sUPNm7fkB5-17" value="" style="edgeStyle=orthogonalEdgeStyle;rounded=0;orthogonalLoop=1;jettySize=auto;html=1;" edge="1" parent="1" source="IP9OFeGjF-sUPNm7fkB5-9" target="IP9OFeGjF-sUPNm7fkB5-16">
          <mxGeometry relative="1" as="geometry" />
        </mxCell>
        <mxCell id="IP9OFeGjF-sUPNm7fkB5-18" value="否" style="edgeLabel;html=1;align=center;verticalAlign=middle;resizable=0;points=[];" vertex="1" connectable="0" parent="IP9OFeGjF-sUPNm7fkB5-17">
          <mxGeometry x="-0.0379" y="2" relative="1" as="geometry">
            <mxPoint as="offset" />
          </mxGeometry>
        </mxCell>
        <mxCell id="IP9OFeGjF-sUPNm7fkB5-9" value="曲率半径大于4000" style="rhombus;whiteSpace=wrap;html=1;" vertex="1" parent="1">
          <mxGeometry x="260" y="350" width="100" height="100" as="geometry" />
        </mxCell>
        <mxCell id="IP9OFeGjF-sUPNm7fkB5-20" value="" style="edgeStyle=orthogonalEdgeStyle;rounded=0;orthogonalLoop=1;jettySize=auto;html=1;" edge="1" parent="1" source="IP9OFeGjF-sUPNm7fkB5-11" target="IP9OFeGjF-sUPNm7fkB5-19">
          <mxGeometry relative="1" as="geometry" />
        </mxCell>
        <mxCell id="IP9OFeGjF-sUPNm7fkB5-21" value="是" style="edgeLabel;html=1;align=center;verticalAlign=middle;resizable=0;points=[];" vertex="1" connectable="0" parent="IP9OFeGjF-sUPNm7fkB5-20">
          <mxGeometry x="-0.1251" y="-2" relative="1" as="geometry">
            <mxPoint as="offset" />
          </mxGeometry>
        </mxCell>
        <mxCell id="IP9OFeGjF-sUPNm7fkB5-23" value="" style="edgeStyle=orthogonalEdgeStyle;rounded=0;orthogonalLoop=1;jettySize=auto;html=1;" edge="1" parent="1" source="IP9OFeGjF-sUPNm7fkB5-11" target="IP9OFeGjF-sUPNm7fkB5-22">
          <mxGeometry relative="1" as="geometry" />
        </mxCell>
        <mxCell id="IP9OFeGjF-sUPNm7fkB5-24" value="否" style="edgeLabel;html=1;align=center;verticalAlign=middle;resizable=0;points=[];" vertex="1" connectable="0" parent="IP9OFeGjF-sUPNm7fkB5-23">
          <mxGeometry x="-0.0158" y="-2" relative="1" as="geometry">
            <mxPoint as="offset" />
          </mxGeometry>
        </mxCell>
        <mxCell id="IP9OFeGjF-sUPNm7fkB5-11" value="如果yawrate&amp;gt;0.01f" style="rhombus;whiteSpace=wrap;html=1;" vertex="1" parent="1">
          <mxGeometry x="490" y="350" width="100" height="90" as="geometry" />
        </mxCell>
        <mxCell id="IP9OFeGjF-sUPNm7fkB5-12" style="edgeStyle=orthogonalEdgeStyle;rounded=0;orthogonalLoop=1;jettySize=auto;html=1;entryX=0;entryY=0.556;entryDx=0;entryDy=0;entryPerimeter=0;" edge="1" parent="1" source="IP9OFeGjF-sUPNm7fkB5-9" target="IP9OFeGjF-sUPNm7fkB5-11">
          <mxGeometry relative="1" as="geometry" />
        </mxCell>
        <mxCell id="IP9OFeGjF-sUPNm7fkB5-14" value="是" style="edgeLabel;html=1;align=center;verticalAlign=middle;resizable=0;points=[];" vertex="1" connectable="0" parent="IP9OFeGjF-sUPNm7fkB5-12">
          <mxGeometry x="0.3099" y="-2" relative="1" as="geometry">
            <mxPoint as="offset" />
          </mxGeometry>
        </mxCell>
        <mxCell id="IP9OFeGjF-sUPNm7fkB5-27" value="" style="edgeStyle=orthogonalEdgeStyle;rounded=0;orthogonalLoop=1;jettySize=auto;html=1;" edge="1" parent="1" source="IP9OFeGjF-sUPNm7fkB5-16" target="IP9OFeGjF-sUPNm7fkB5-26">
          <mxGeometry relative="1" as="geometry" />
        </mxCell>
        <mxCell id="IP9OFeGjF-sUPNm7fkB5-16" value="根据自车横向速度和yawrate判断左转右转" style="rhombus;whiteSpace=wrap;html=1;" vertex="1" parent="1">
          <mxGeometry x="245" y="490" width="130" height="130" as="geometry" />
        </mxCell>
        <mxCell id="IP9OFeGjF-sUPNm7fkB5-19" value="变道" style="rounded=0;whiteSpace=wrap;html=1;" vertex="1" parent="1">
          <mxGeometry x="480" y="555" width="120" height="60" as="geometry" />
        </mxCell>
        <mxCell id="IP9OFeGjF-sUPNm7fkB5-22" value="直行" style="rounded=0;whiteSpace=wrap;html=1;" vertex="1" parent="1">
          <mxGeometry x="660" y="365" width="120" height="60" as="geometry" />
        </mxCell>
        <mxCell id="IP9OFeGjF-sUPNm7fkB5-26" value="" style="shape=image;verticalLabelPosition=bottom;labelBackgroundColor=default;verticalAlign=top;aspect=fixed;imageAspect=0;image=data:image/png,iVBORw0KGgoAAAANSUhEUgAABOQAAACxCAIAAADrr/UcAAAACXBIWXMAAA7EAAAOxAGVKw4bAAAgAElEQVR4nOydeVwT1/bAz8wkGUJISICENaxBUYIouAGuuIEbuFTUVq1WrbZa7dNqW183W/vU6q/61KettlbsotYNN3ADN8AVRRJcABEiIGFPgDBJZub3B/smu211vh/+YXJz5mbm3nPvuffccxDvPq4AUFxIAgDFs7wjtRCrKTAasopL9+sKdvEQYPiHgY62sRxWTpzPLYnhMq+vIWzDbL8jK3ua4DgfBwDy+rLwTyI06F9dLQaGVxfEKBr13a/LvPUJX0/9LJ58cWHCfdkf/x1t++TAovf2pzMKrMNgOk/7Hb+MdhbwRDgAsJ8fOLbw47Syl10Nqs/P728K5ABQ2sySQkAE1kIRTiNE6cllf/xflI550QyvCk4WondpyMgu/KEzJmCLFy/e+sv2uldoFvdfYsvpBhMpjYEBnt188Nv6D3bu3NnxezEw/G1h1f0HLSvo97Cg+h8AxlL9R0Kde553DgAYS7Up0AKBqaUAR4EqTsm5vCd6F2OpMjAwvLoYcROBmCcCpEJdmHjw+pbNL99SBQDIOHT1GCGTyy0crEVOOFmmLkmKSzmx+2a00sCMVAyvEBmFRZ9CF07AEKPu+5xn39f874Eu66I7MTD8bWC1XISB4RWCsNkeNWp71F9dDQYGBoaXAMlPeLzQ+fFfXQ20MEqxPUrxV1eDgYGBgeEfB2OsMjAwMDB0ITSr6Nwn4861rjCesvXt4K0AAMyGGwMDAwMDw2sP4wHJwMDAwMDAwMDAwMDA8LeD2VllYGBgYGBgYGBg+Nux7O0lf3UVGBj+YpDKaMAq1xFsXaFZTlKn38BYSHS6TAYGBgYGBgYGBgYGBoZXG8YNmIGBgYGBgYGBgYGBgeFvB2OsMjAwMDAwMDAwMDAwMPztYIxVBgYGBgYGBgYGBgYGhr8djLHKwMDAwMDAwMDAwMDA8LfjZUcDxkX/+nOoN02c+eTkweSWbo6gPUO8JoyycbfG2RwUaMRw8/K76wrJjlcDIflPx04CZy2cPOGU3QkCGSrhlC0JjFspYyvuTRt3Tf1q5UmkcTxgxdCZwc6uUi4OAMDO2rZ/zuZc+q+uWNvBdSvGXFvqUmepyhg1d8d3MX9VfTCtj8efR0c6Qf73Xr+d0v5V1WD454HyncPGjx/pJpXwOSwAAN2pHZ/uyOygVMn0XXtnSYvPfPLmjvsvLskqGvbetY9GsxJ/Gf/JYfLV0nj/KF5tHYKw/d2WLBkw0FdghXMAaITI+sbrSLT+r64XA8NfA2Xm5LtwzMi+TpYiFg5Ag/HJ159tj6PqlimRBRWPsIMHpxyvdM1klCXM8PEBRwnwucBB4O6fTjdfNc3z9+Hvm7oGNThNGfmvWSI2jRjKy0vKjACsskKq5S+2hnJHH3BmQVaitCOWKo3bfvxo2uhmP+9qY4Z2Wj9n73QRDSSmUMwad0lV2x/Z1JIRF1d2R4HCNBn/7nviWjtHNYQb1G22jxBNe7rr4D/RKutEWN4bwr4JFdGA6kpK1YQBQdj5GiNZ5Z2A0DJJUIibt6edu7vAViJg40ZCXZZ2J+3S7lvHE3QNNCUqFQ+e5jHU39HDXWglYJNEuVqRmxCV8Ee4Sl0bPZsl+Grq8TlitOk3iBjEdt9cmzoEN3m8aee72zVtcZIwmj4rUChNWDQAsGzkYov2PZKXDo1zR6zoLQN90v478aqOy8MzQuT3tg4yA82+EXvD0zousAGk++xBwx1Y+ZeuH40zdLr0zoXiSsaPGTtW7i7l80BXlpX98FzUyROZxR1WuezeQ8ZP7+ftLjHnGPUF6owbcWf23XpaXr8QzeL59gkYJu/mYW9rzTdFjURR4bOHisQjl68+qmhWNM3CFyxcFioBAGOpVqsz6AGMJX/3J90psE2/mnBqjrQZndzVxoxJRlivBxv82EAjRN6OgD+O5Nd8hGl93P44GuwGAFBxcuYPW+LaeY/O7uz/XDCdp+2WveO8cBohDAXqEhIBqrhCV1uA5RLSbbifi0wudHasGlAKUgoSo+7/sTvlWaN0DPZBPccEufbxlbhIBGyc1GUWpySknd9965yypuewDbMHnV7biw/E4cm7diY0rpLJhNNzl3uykDt33558LbOr1mgQ+c+LtgZy6lwhKzTluSmFd6PuHKw3VrYP1CCzmTvNkUcUnNmc8ro2MdpE0nPmmMAhbo6WXBO9Vp2edvfPqDM3il6aWFNXD/deTs49nFy62zlZcwGg4uiOT3a/aMERoSV91y2c1Y1Fg5Eo1BaQBqCMxRXGBr6iwpSEYh9b6NEvR3HarrCDP6gRNCcjIAg8TAEhoaQAivSgMXb2PRhqeenGqrFYVZrHJsr1Lc2BENMhI8Vsmko9cmJTuFHXQum2gJBCdX9XAA3cy3g13KAxUu4+Sn7pZ2XNFXR0cPfO+G0sxM8zbI4tO1q/80AutDwm0RxNxXOVhq0iXq3tapSQWoUFi2igrq3++auD2prWW/2Q2eVBfVYurXnmNADGkgh6BffpFSwftun4J9uzq6fcWImn/U9HJ3njNcJpDOc6+Do7+LqMDrn/1dzom3mV15Gnl5Q5cwJtBNL+feFawzkfW+1v44MDQEFCTJssVQAg6YOxHx4EAKBxyYf3Z0zAW/pGF8MidDmqEpzWaluYfwj7Lew/GghO1D9i/oq4hvYP88GfaBIPxxn+xroGIfm2q977YKRFZTuggWvq4ubz7vtyrz83f3Nb3YFVKjRo7idLPERY5X8sjrWd+8SpH/g6hf/rz3uaWn3CXbDsmymSOt9j4WKJmzjQzb9f719++uHPHH1TugdBPUaOltCI7umOrbtOFDVZhqFLQWjcfvBY7uHwmvU4xD5ELgPojJXNtnX2VuuQfxy0y6xBvXCKVtxfPPPyI02jj3Hz4K9HTRHUXsBwrq3cwVbuMCIkZeO8M9G1T8/QY8viHaG86rdDA6B8RwsfR5FvcK8h6w59Hl65H2BgHbwWHubxvicesqLfoZm3Cup1LZY+rO/bnhyAihObb3SZpdokmImA7+TLd/J1Dgp58PXcs9fzOiKNlSuznLSwn6UmM3Fbiup13KameG7DNs2b5FxlCFAsvpVn75Hy7j1279h2OK/dGrX1YhHKrs+/5061bZt8TU//kd1ZYMyI+eCHk09q5poNh1gaUQsS1Zph1gZfB/r8s85tqQg4gCsXED3ERzglMhuqXc7LNlYJ7c/vXwAAAE4LJbnmdrZGAO29yzodsDu1DvaeIEGg5IltVudYVCaPN/386cGSRpNRRK8hXsJupFFdrpGIAoIs9ygLUAAArExmG+SJlamLQcITtPT1TsXADr80KxwAoBWW7T8ITC2zluIUpsmOPqZtap2F5mhKkiMT7yRkpaSWPFeVFROoyNNu+MKBYT7CXisnLVX++F1M1bo1B3gmOFaaknk5IjkuLis1zwhifv9pAQumOwjkvb7YUPjm3HvFCAAYRHGqmxqYKOB5+llScQX1G5jR18+dDyQrM+NKSpf//i6G5CqfrBn85K+uxmsLETR18UgLDqLLPfjnngPKfL2FzfSpC2a5ifwnzZqYtjminavsevsh77/vIcKAuB21b9vV5AIQDhwz/cMhHvb95ixLefpVYnF1k8ZxLmLQ5sbfjY1/mP5YXWxgm3jIB88eM9iB7zp39ltp3/18t4lep7eVOJkA0Bn3zxTqkVdK4bQSiqXO+GxKlLLh5jNiBLK0yyffFKbRP8NJ7zFy4b5bJQgAAI1jEwPtMbU2U8K36+r71+MV1iEVPRytacCfxigeaJoMM6LTKJ6dU6TdVxZkqTTqPB0lELkHeby9sLeru/uq9X2VM2/nVvUODiZgIUS5MvLhpZgnCcriYgKV+EvfXDI0QMrxXzNpkeKn/yUAACAE/eumuNC9w+wD+i0KvrcuqtZdgcZN5i/xFQJSFnnp55fhMEJiinszJleeKkL5nhL/qrHS4/O1WWGLFYyZ0G4oruTdGZOcWYgu+9623w9dySsROfksnj7P38Lh7dkTEzYdTm+XUm2jWEyvK0/PTn+Ykf5IZ/nmOD9xy3cocZXY0oA/eXAjhQTsRSVFqQ80/hJwlecJnkkarfN0BEogBBYAFPBSmSb4Mvj7rvabYRwAAIOB6Nw60pycns4AAE9SOJ1kSSIkUVqYpy9o+Ee8lCVeClM8jckrdxvu5VT1e1BukIc3UNejH3aS1zQDguAIDgBgbOaVGtjh8csWXwrfnRIfo05PLStSaZ9EPdoz48ivKgBgBYa41Wy6oprCo4v2Th91+P+2J19PKMlXleUnPD/z8emPjuciQJsE9hkvq74rUXjlth6g3NXHjd+wsSKD+1rTwCqMS3n4Oi4JM3QWCGU3aJqHGQBcP7brJ2W+DoAsfL5//55oLQIs5ylD5e2TS7Mc3hjSkwVYwa2D30Q/UBsR0lgSe3rLnoelALTfsJF1fFgrEk79MP+b//zn9JVLaapsrTavMO/qlT8/+vOmBgC16DPRi9eUrqZYXDYGAGBo3lP4lYfS5jYx9JTkGV+CbwtSkR0bq4O+spFVE0xWga8sUMp5Hv3kUdff/bWBxTEBAKCIpi1DhCj/deaRDd/ei4xQ3U8oea7Sq5W5sZvj3l53TwfADvAaI6spqy+OuLZk0O6ly68eiciqHKceHXz00aKoWwRC4/zg2R7V45TRNEbxfXQZAljgkgCX2u7Hphf4TZPSCFG4f3PjXd6ugiQq/6jihOdnPj69KrIIAdok0CfI4WXV4BWEFPebNJxPg1H9W/gvMXnlJLDzMxRfHzicA8CSDJoub1Lrdq5YGs2+vOTLNe/9uOe/Z6PPZGS1zpHWujI+AWVsee+XzIB0PYCdzlPYnh/zAsEmHEARIAkTZv71UngZO6sIaT52wH/fraNVmguwxCrqu+SdpYF1TSyLGT9OmVH1rc4IsIRgzuDEASQfTWtmOcRpy+y9oSLi+Lng3SVvrxg0pq+VFU4XZebF7Y/bE55d2pGbA8t9if/8MFkPqYBTos2MU/70+Q1k6wfr/Nk5P+6f9W2DQ6EstwV+s0Jd5TKeOWBlucWP45KP7Lhzo5FDFELknbtoO3V6rSfw2GB3tib9crzRd3oTdWhJLGIQO6y9NXlY9f80gD5wyMWMITUl9MfPjlte1xLGQy4s+qB2RCSxFwVYQkiBYNSSgSHBDk4SMx7oizILEqPu7tve4HQNIvkq7MAcMR15afjq9CErhr451tlNzDaoNcmRt3Z9m5TWnoUAvdOUT2eKHkZFnEtolYsLMvH0B8s8a/8nBc7rHi+r/q/lM8kIobmv0IMUM5WK+DSUIABA4arcC014tZExEcqcUGsbEHVzB6g6P2ly+ZLCENjbxEs6AL9Z5wQaSkhtfWQAQN29lFX/hyC0zHLK/IHDA+xdJFwM9MUpubcjbv6yW1XQ8u99AbQgyPOdWV4+XlbWAsSg0T27nX52T/yRuIbHcavBLII8Zk3r7uNlJRZz2YQuNyX3VkTi0fCnqtoXh9qsn/b7dOs6D7DJ4CiVLaFuMXzS0WWTav+tOXFac16u7MC4PbuVDeRwYEXQ+aWOeGbauyMjH7R9hOF42o8Jce/na+PoKLQQ41yisukmHdj9IK121lZzDrYGwnXl3JiVNf+a3vt804rwtu5IEM5hX82xUJ4+EnVLTXTqJqLO1cvfDmhEm3QqqWarE1Bd6rG7OYFDbCTd+3hSCmWblwwR2qn3QD4AFF+MvVunxqbn42/M8xjBt+sxXAK/VnnxVcTfe9BIAlakuJhk7B/AAid7OzoxpVIGxXVb9+WSvtWFaADwmHph49San9MZAZb+ElBC6rjtakgf0OwdEX4rMGDebJmnxBQhSp/Eph789tq1Dvm9I4in7ZwVg0f0tbIWoNqUnGt7rm1SWe77fYQzkbve6+C5et2hDZ399tkHYwL9azyBXcd0d4bSiLPpZtO9m6qD/cwFfYcESKRiU4QoVyuy4w/d+O1gXp0e3/rOXkkrdUgNrRlVa0bAsgPjfvld0m3R0n5+nkJz0Bcosk5vPx8e05zSewGYzmfqdyM416JORycVtmJG/mI10pozyZTxTkYm9O4OAjvHmgGF/SxC8axhSZKrTDujhH4+Rr7MyoaG7OqfF7f53L2ASd7y3u9Nv7HyoA4BhBSYrJzTkwug2nfxz9S6QlCr4e7BY1x7yS3sHUVCAQstKc9Nzbpx6G74wZpZE2vI0fe/8MGfbNr1TrNBFiobgMQQeS54cXMrHvSFKKU2eJAZLnJzB6j+PTSOe4R2Gz5M5iUTiK3NhAIwqkufKjJj9tw+ElfXH+rFwzrJbmKAQEgBHrBgwIRg5+5SoTnQJbl5j6KSft2ueNAF9jrNsfIcPS6kL+/05/+734X7SeV+8p4sQIjUS2cKa1zhaMg4dzZ76tt20M+nJ0txq+1B49oqFmmdgYrq5cEnZ400rb1CdB//xdnx1fKbCLAEAACk1VN1fncpuLrqryd01gYVw8vnpbgBI4bCstSHxQAAHNTOVWDaXEEaL8/LS32IAQBwWE6uZmyg8p6UlFTZFaheRRk6uBuss3cADgLlaqviF1aZFDt/8Ue3IQKgCNKAY5bu9hPWvuHrdnLJF09K2nlrrvfOSd8FizEAAGO5iZlb8IBvPPmRTR26oHHeyJ1TVwcKMQAAspxA+Y4Wvo7+/cf2+Ontg/sTGsx0qYSzd3OmBwcEWe5RFutktmM8Ud3x1AiC9692iUWJ8pyEnGQOANAcayuZmIVptMrM8ho9oFdVkPX8fOkSRU5yBQDQbHMrd+kL/DJQg0z48d6wsVIOAFAEWQEcS3fbQHfbIcOTPqs9rlm3zlZT9g5Y6lu5GkdjEr7PnBHfS+g32+P/g1Iix/7Bfn2D5+QkXYmOijx//cUeHEhBSk4yDQCA4Nxu7kIMKlSKouqvsPLydOQL2yONc+VyDgBlVGvLW1D6lLCEKAOor7tJLE6lAJ8+AhvfAIiujdbLyvd38AIaIXLjYus2BoQb1G/TVj8PHAAQPVFhwHGJ3GGs3CnA7/LKxXeetHOrny1ZEfTjUlc+AABWThC4wEwW6CUL7Nnv89/XhDcMe0bjpgM3jPsy1I4DldUgdTjXVu48Ud69l+CnuZtr/Zl1zwqTlRRNA4LzXN0FzZycpcnqYgAmDnKRACA/Jac6ugaNELq8qokFyU9IOaUMXuZpHhhiv1uZVV8O+UawCwrszKiEdu1FI0Ebp1ZPccgKTQWBm1i62wa62wwPcvl65pnLVU2X5OVpk5U5ZjQAoAJ3awcc0WfmpWpqXhOmUrfj7hhl4TRwfED/8e/kJF4+f+pkZNzjTpom5Xs6OaEAxqzHifV6Nf9BmrJsiK2phbOXBShfqC6bQu/gJOMDjejSFVl1OwltyEh+bBzhyxL3cOLReWUv6BaIkSrXAfABwFhTDDHosjKemgEA0BwLO1c+B9FpHqqLqmchhLozAxz8JdCylZPfDLbjAFlOkFyBec/gPt8ESHfM+OPPhusvrQTT+7tu3zvWu0otGLnu9uM3zLA9ntiUpm5TZ6fh4tNYwmfsGLlw361iE2xioB0rM+1sEkxpVAcqyPPHrcPdq+tA41wHX7c3fN0G+11YvlxZrfhb39mraJ0OAWjzqAoAtGnQwP8t9XUAxAg0Chyxr/PcXW+xZuze20TMoReDGDl8t4HBngMnzXqWeOnimagzt164i/RiNUJjJeqW5iGYwdfFDgCgVNOywiErivXQ0KGS5Cqfrz+Q9dscW9/3h/oei0rQoxZLho8VUyz1k53b6mpXxCC2X7w3aFjVv1Spxsg25zr4yhx8uw8fduHDxfefAQDQibdViI+Do6cTRifRzaxle3pZ02DyJCG7FTYMjdW+bzwzSH5iQ5V5TxF0KUHyJMLugcLugT38Nx1etV1d/YJfPKxTbFUBQdTVhAgts1m1N7R60kKUAS5ylAxcOKJ/kMvGeSfP1zPaOwLNlfYZNX7cuOH+DjxAy66f5QB0WcwemuXuKQEAztPU1FKk3rtPSM2Za2djaucmg1ttdZHoIrEANKbNe5zx1AQAABHaO9mwUF2hKkNb9VYRY7a2/qy0Gt6znHzKAfgOalGCQ6eHWWJ4WbwMY5VGy+MffB3/AKA6dU1zJUnT5N+uJv8GAAA21p/96CeD4gvrY6Ke17b4jq4z5dpIAAAK1SYv3KCluQGyQHXu7mWnD8VoCZzfa8WgLxZ2s5szfnn8zq+i2nFOg22YPfCrYDEGhsRtkd9tT88hWPwgj7UbR4xzbFwYE64YtTJQiEHFnU1nNu1WqQkw9XdZtCFonFQ0d8sI5ciohAYL4XGZMXnlbw33ctoU/zikpxzoa1HpOpC3SyyNaQr2TD5UWW3TryacmmOL3U58f+7duoqgvk7QX1p+6BJATeqa5q1VkxEbw8ZKWZgm78CqyH1RRTrAbcK8P1vr5yHv9dmarDeXN/AsQtCAHotLCsIXHTkYVVQhEPZbO+qrUDtesN8bnoqf2zx1wwqunjxhPXawj6Ot17A3vYaHFafcuBgdeTomuaTJjVYqdvmhWAAAzrOg7jd2DbPUPN81OeJ6nYffZHvEcBrFeda+4jELhoVJAQC5EvGopUbD0sqtHYFGiLwHipqLJC8152oq9JFxvX2skZiaXVy9v183U6CQ2+lxmpqXgRE+zlu2+nngxszjsds2KxNUBgDENqT30q+HDAgc9OWS57M3ZzW+cUuwyof33LTUlQ/w/PjVb9clKPMAldqOXT/6gwDzAWsmvn3nl/ovguX81dhvQu1QMCj2Xd255+FDlQEAE/g7hcwfFFBPMlWy/dyS7VAn7UTTFOw+t2Q3QG38beLq6kPbm54vso4dV7zn2cM+qFePTVl1VscxrY/bKBkAlES3M641RanzrsU+vHAp/e6dolICKn/UvLVjJrh3W7E27dbiR+UAAEaruMefjHtc+ZUxRz9c5cN5dujk+20L19wYrCDm6FHrkGH9nGy9A2d7j5hR9Dju3LnTJy4qiju40SqzFwEAS52rJhBAAXNxcgR1erqOxgqzcgDcwMreGqDNxmqBnbUtCkAVFaQjAGAUSlylxuf3C/WoLjNbA74WqLVEApDevATEaOHoxAcAMiUjq87V7F3/2woAAITjuFU/DnGiM86//3Ms+9U5s2o+OFiYdeDil98mPdGAiY/Le1uDxkmtFm0YdGNceyKv0jh3/oax3jhNpzz5v9UXzyZUkGLh8LXBn4R6YQ0DIbW1s4NR8+xCrG5sgGyk+O4P3WSBUs7zfUnJeqy+sYoYxKKPNw53x5EKhXLL6kvnlUZSYNp3ycg1C51tQkd+kqBaHl7VQdrS2aH1OqTtoyoAmAQt7Jt34MKSzYoHeSzecPc1W0cPEJi+sUD+62JFGycBpOnDK4cu2owa2MfWodfYOb3GzSxQXLlwLvJMXHppU6d12qlGMBwAMK5U2CPIa97SXnygQPEwStFCCAkaF3m4cwCQYsXzZ0jdQc2Qtf3smbHzxjv2XLDw1vwIk+XTXVBAbm6+GqdtMPYRhDI7IjLxWkymUllBANA42ylUvmLNEHnw6JWzn34QrkGBdV+ZoQV7gcy6OyQ9bKYmPWQAUPzojgZtttL0AD93PgANupzaeA00RpC5ccpjEalX4rKeqAwAgAiEvZf4r14o814aMitmd3XTbXlYr2upkgLR3L3TxkrR8jtJO9Zdi0moIABMfJxmfz1quqfLqq8GJM+8kdVR5cNxHTZ+0uixft62XAAApFyluHruTJqh62J/IKTAzo4LAPpstRoDoFmCnvainIyMYjBLL8yiwAYRWNtj8KhtZ8m6SCwA0FjGzU/+dxMAAAyT3tu+0ImdGbdn2dVab6BmnhWiV0MpgLmItONAIeOz+0/l75u6pkuguCDhAgAUl7SoA5Doz4/8GmMAAITQJn0btVFmvz7QZNis3tsjGwTH0/VYszB6TWMJdR2W2DNn9+IDUn784r83p1dOarVRj5ZIxKfX9uLX/xqN82dNcuIAVrAv6tPtqsqVtfK4zK+WnXU9OqGHY49pky7fOVjPEwmp0MZc1Myc7j5Kfr13oDtbk3Up2ogEdlRsZ8PK93d524cDQF3+7NjOqMp7Ec8P3l0kMI9c04MX3H/spkcH6nkpITQO0auP/lIZnUhTfGN1ZETAO2+ILX38uT8p21pbpPzR+b3rzu8XyvqPCBw90r+XRBYwRRYwZbYq4eL5yDPRCc87uCtD42aLr73zRm2IABohKm5vO7mhpQUOGseWzfZhA1REJ0TVewJkTKxqmczezt/FYlNuQVUUE94AXxENJo/iH2pr5xbY0JWjvXCs6HjUslqbn86JSFoB+PGt/ZzCfAdty2p7EiP9qFn+9kCBImnNqoSnegAASvU8YvFxyem335QKJ86S7fs4tXrpB9N5On04yR4F9Mm2wys31yxmk5q4J/vj0s+IWV18TN5IHX8Yv1I+xNF1fAA8qN2LRuxDfGRAwZ2k06ntmwEgp+b+fqreFVITp/p8XZzP3iGOAfJ+nEeXu3AgRMoent39ZdQvIveBo8cEjxnc29p9aJj70LB3nt46e+70ybO3ctp7btPCnAsAWKm2hAZDv6mff9FPBNrUTVt2RGu1RQAAJuZ8Dg1tjQyJWfLNAGhEo8kHUtRv1q6p/QWgO/Pzl/99ZMivAABSYC6kaWg+MFJFnyEjuwMNhXfOPHytIv1SoLj779VJlXZpRYJq7eqLHr8Hu8m9wwKufVcvKjhqlLhtqvVgrKXOSQ22JrTXZCmNEJrflp86UzlfzyuKXn5CKn9njrTh99rS2SsxOXX2wReB/oPH8q64eTmDPuJsFg0NlmBZWFjfIAGNEHk/LTp//hkAAKYpu/vt6a+lM78PNu8zq3/PfRceduU7btfwh2GK+E9WK7IQADCWxaQt+/HxlZUynq9zH47iZts6O40VP4743zfHd1t4Dhk5esSogd0tPUeEeY6YMi/93sXIiMqdOAsAACAASURBVMgryYUdjVWEP18yPGll3SwAaJki5fvlsU9aeLAsQ2jvECkAaM8dSq2vn2l2XsWmH5NHrPHosXDoMk/OUAFFKxJ2HtCgSINi6o3j/qx7CSEMmQeTVjlITy119B7jwd93swwx2CTk3wckwFHsKYaH+dAIrELGlwsoTJN/X9H4UwCgTWQWviH93ptuTQNNxd4/W6vM9Q5R9xZG1S+tKb77beQP8kX/9jcfVhuBsk2wsQVDZkgpNEW5esaF5OqXXpGg2rYo0vbC1CEBfSb53mh+MaUFMGvPEeMnBA/v312E0wCIPl8Zd/ncuYhLiQUG6NoolQjfXAgAoCvSAc3iLlj26RQJtzzt5JIfojO0xTpATFmmluYAbYyu10ViOwCNFEMBgAADS0uAnE4Ty8YBAEgSYULDvBT+vgGWugIE+FAZHbes/MUlKZb6yYnouqMH+1hEsgZQuq9L/zYH2MVKPO39ZQBguBLxqM6djejxR7ENPTNZBb5O/cUAoDl/KKOuRyg/IfVkAgBQ3n5OjbYuWZcv3c8D0aAFvqM9UV20Mr7hUNo+sZ2MvZ+bFCiWOv10ZN1pgREO3o8lEBq37h/Irb/UT7Iz0yPqeLoiRFFCkh5AL3GwaLcmNxanxh358cvF7yz48r9HrioLDCZSn3Hz1uz8Yec3i6YMkvLaK7chNELoYtadXFubt6Y5OJYrRs+TUZgmb8/mBu7NiPJSSg4gIHesbnhYuVTcXwoAhbdqk9aghNR6gi8HQHN2d4PdaSMn6kk8gRoldr3bHiuHxiUD+3IAOA8iEp7UNioa05QeicyiwGjh796tNrQ3Igzy9MQpljpt3zZ1o9kXXZDX1dEjaXbe8xOxZQiwh4TU7vDTOD55rDUN+P2IxOedOQMwmt8pfgQoKRA4NZz3dwWIoSj16sEdn857a/anmw9eUuTrTZz7hSz88ufwnzcuDRvi1OwJi2ahWRiXDQCI3qBHwNzbTYQBYHznPhJADHqDEQBoDqsd4dhN2CwAQCijwQBFLrKeAgAA855O9gB6g6FKbPNb3LSpx6TlfrY0GGNOHbv3aiXCagnOg4j7T2tbqdEsLuN0KgCY+Ayzb7s0qu+wngKgQfHoSB0DACGIA5FZjRz429TZKzHYRKbdICq8xwx8M9CKlZl27nbjOhBD/V1QAEP0/ZP1VuLQ0xH38wCl3KX9ZY2/1Ym0b/jjKCLu10l4QVJxaSpAjRKBbXtzfSGGwuSLh7Z8On/usq/2nLj2tJgSuvSd/N7XP/y04+P54/s7dOKZOkxzJ3Hj4jMxLTipooTU4vOVvkJg5e679FMTRpcBDY/dl4qSAumUYGsa9Ke/vdmS9VsrPE2ZVQ6ASS0dcQCgOOr8JBVC4xJ3r6oCbuunH72/aOcKawQAACuUS12BRlKyEmvnRRgp9/0jY9nFp8suPl1++sLstUt72ACiS0n9z8et2dLE7qQUIWAQS8Xt2ppBQoKdOMBRHrqpqDenonCVKkYJAAJvf8u2mytc234T3/tyxx8/b1w2eXA3EVqUdiNi5zfvTJvz0Xc/n6+0VLsWhGJVWlsGfTlCCly9JDgAaerU3QMD1KgnAQBYeJsfWReJ7RCIHsr0AAB8biceWc2pTE+v07IZY/Wl8LrtrHKqsuDoW1gWpakUdXK9cwukWWpeOiC9cAtnd4B6Or251DVoadVBHFaxTOAKNEIUPa43kNOYJi8tFcCz7kVML7OwBQrTFD1umJKElfg4F/Gx4taPglD5g+xjUmPyhr4R2hcAi41K0zdclGuf2M5FJ5NJMKCpFHVivWdLY5riZBWMlFEObhYI1HNVJVXPU+oVBq3GgADOwblURxdbyIKky78nXfmVZ91vRPDIIf59XHqMmukxZmz/NXP/L7ldohGidFe/rbsAEIGprb/9xIX+k9eG+Y658eniuORmjxii7JD+3y904oA++rNTh1Mb/CiDQ1x2rAaZIrDxCYDIKABglfhL5UCyM5/G1r5KVp6n0AMHAHzIhmm9Gt6CbYUDgKlY2qDptgimkQlcBABApCgbeKCx7ivTy8EOs7Zww6Ha4Vbn7WmPAhgUT278Zf422KmI+/8OHGAZ2DuAn3pFCwDsIv/uo8QUplFFnemI7wBmFeLxZkhV1Kj681XUzKRjtW4bxvzE6PDEmF94Nv3HTAgeNsjHzTNods+xE/xWztigbP+aU+H5KwmDxvfGMi6ezujguj5Rx6ixSoo7p3Sb6GxIOXm3ddkQLOQfTx9lB5BxZd9W5YvOtb6KNO5rxuSUMkRmYiuTAJ1V5700l7oGSKImkznVw5FHA1agyKzvToSmKNPLwa6OX09bO3slNKbJj4olRwZ6TADs+b4HyXqA+n2BxgUuUg4A/iw1h6intA3Wd9SPAazAwrk2qlxX0L7hT5uZWk9doJqKMgAAjGsO0KF8FYju2f3Iffcj95lIBwYFBw0Z5OXUL3huv+DxR/616PeM9skkbLZHjdoeBYCZyay8Q+TzF8rXXnA6t+rwxogm060BAEIKzKbumjJKDMSd22vXNR21ECEMP266GrprsA0gZZGxu5tJV0PjZr0W9Jk03NHDXWglYNVRQhRtgvGrRFXcVZQhUlE3T0sqpgDBTQMCrM0FpGWV35DRt489Bzi5ClVBs32eRgji9rbIb3ZnahpWFyGlonHzfQID7F2lQlEdBU0DyRWwabqtOg0hBfxeUgAA22lBO0IafEqaOQKAwVLMR6BN4QuNDu9s2DXZDQGgyrLvxJy7cC7yWlqT3uAvB5pV+Dji3rP35JbP4i7d6rR6dJHY9mAgAHDATcnOsHloNrfIXk73EQJCQnoGE7Tp5fCaGavQWvMG1Ws0hnp6jTJVVxQCAODm5g0KV6WuaV4NImCOmwKNEkRxQ/VaVtQoToJIzAeg0eKyRo4SaFFeOQnAEnD5OEB9YwAhiDOxRdNCzVFN1oVYQ+NEtu0T27nwzXk00IaGzxYAtBo1gIzkm3MxgDr7KAilaZCDATMAANBNtVyXuTs3jZfUvWK8tnHW/914sQ8hjZY9T7hyHmfzhJLh3XgIsDkcdr1KtANaU54dlbIzRpV1dO7ygIFff5o78+MmpwIoOtxry0ZfB6AfbDryn4gmjiQhRF78bf2UQFO5jz1EZQHoR/h05wAnLy7lYe2aBEpK+AIAAJad3LaZDIcYDmyANi3aIgZzjgAAQF+Y2+AjCtUYSwAxwzlCSc3UzdTCmgOAalSl+r8s1a7eLupRZJ7fDLF07Fju5YM6BKj+IXJbQMtjE6Ob8D1rJVyvLeM3htpxAChCl5OSryUMFEB1GBg22t7Nlg5Ao2U5d2KiuGyeyGZkdx4CHA6Oty0mB2IkdQYAFs1hc2gwyYjf/3b8/irpXE7l7qje2I6FfrrMCAA0ymKzAQwZV1d+c7X6Iw6bXSW2qRaCkHzbVQvm9+Oy8hWHvzilrHjNTNWm+hqtLSkFMEHMTcwB6o8YlDZXX9C80qZxnlAAAFhpXkX91b3K/gt1jNW2dvYa0Etn7+oCB3CBuH72KdJEv2eJzAEA0+Y10G80S2MsIABwlG/eVtXUNto1/JFlTUcxauwRYOj90eHPB9adtmLqM/9euEeBtdB6KzLvnLvG45iKLIY48GngcFpKQN8KyNLU3NjN+bGput+29h29MTRduf9gU/urNI4Hbgn90JNDZqavf/dy82HnDMKYnPsANmCSmZCmaUKxIwaxxZxfJs335NGAGEq0mYoKHRigKoKRgAVYzVmVuwlpZLDcydMWh+J8maS/lF2gLhTL3fwE109pjd7drGmgUxLqhoQiMcW9t2ZeVxOACHD30F7vr+zXd+mYpaqDX9cbLjHCx2nzLxMGCACALM8sStNUEADVQSJRDFhtNyrQCompBQ4ARqG7bTOpT2gUZ7XVCkY5OAZAQUXGrbir0dHxnWypIqR08o5d89zqXXz0/ZR/Xahd1aJRo4EAAGBzTAHAEP3H5ujq2lEsTmUcUKLN4Z26SGxHqXy8HXYkRUjbp7OCgI8AABg1cP+6/a2OZVlgaDWvmbGKkGAEwAEwrB3WCNkJ40hDWJ3XbamU8CvHwZWjfBTHJCluLSb2AwPHjhjl5+NoDgBgLEm/dzHycFonuR0iBLUrPPndDd6iSX2HrEs732iSR/s4rt86zAOHZz8eX729sd9sVSUvX1IYAr1t/V0kdFauCa+fL48G4/2GSWsAgGKpM1cPqh8roguhutpvvH0gRNmhM7kz54j7junOP5BYYi4KCRTRQMdGpLX3wbCIEK8vQ+04UHFz3ZnvwlWFVQsPCClw/Px+aOCLv90lmEj9R08YHRTQz0kIAGAoTrt77tTB1DYrlMISHQCXNOObI1B3joggfL4IAKCiRNuOI6NkgbYUgEcLBFYA9ZcIMCsTAMA0JcWND6xSXItF8z4YaYGWp5359++Xc187S/Vvyws6u9EsMvXnPqbuRF5EXLOFGOpDClwGjQ4eMWxgH1seACA6dcrNCycvviDiWBvl01GJEap+70qtJ0yzPtQwMR4AcHttmLQmUEirc7bNO3Gl/at4AIDJVoya78nF1Pn7Pz8RHqWtVrOcZ0Fed3b5c2p32kn6jloFtMxTKuOkZPq7yKDk8G7l8DXDfQLYJ2J4HjIAyE+603Ak1JcY9QhAnlGx+/ZCMDm5Rj7q6+A7dw7Wie/AmrZxwgABUqFQblp9KUZZI4El+Grq8TmWHfl5AMThybt2Nu+U1EYrCHt+Kny/2cQx/nKXYVOXD3tjoUpxJeZc5NkLqW2OY9d+aG1JMYAEuCJuw09M+UIu0GAsL2h76osuEttBMBYAgJHssLmqg1w16DkgFAJLAPYOpbxnwpeWbfj15jUzVkEHZQA8ANz0xVuIFEcgYNNQJ84mWi7hmQEAECVt7mk0lBDlgPBxXNhw7RYTNdynhaI8LQBCCXmiRrUSiU0xAEqj0xKNl/JIPOHpfxOeNleJ9ortTLQlZQiYNHq2AMAXSAAA05boOmAnpu9dPGVvo6tN/SDaROI9PHjk0CH9ugk5NABieHFsxnZDU+rCEkC4ON/ZEaBeIE2U9JR+/UOIr4DOPXD2w28zy5oVYsRj0u9CnwHujn5iLNzato+UwjTq+klrKEyt1QAiMudZd+b2OM0u0WsA7IFjYd3ATw+lBBwzoBGC0NbaOOWFuXrwZAmkZpwu3ShpATr30PWHcyZ6BPQaLU3eFtBtsIBkZ6ZGRre7RqRPUC8RIGXHL3+xW1U3GnSplGPVGTVuNTRu3Wf0+KDAOjE57l86G3nqxNV2Ls+nZhUBWBgl1hKcTqmz14mQFva2AAD5WQ332VqDZXZuDgUyTGTpQkN+nU5IcR3tBABA5aobptSgWeaz5i6fbGdSkXHli/DIjNfrqGoNjfsawjc3AwC6pKKtgw9ClBVrAIA0E5vUn6mhlIBVf/Bpa2ev/SKmyT/6cXTjD6oxFpUACEi+WEBB3SA3iFHAssQBgNKWdK226OLhj33vuxmTG11tclsV5Ul9R4wcPmJYXwczDABAl51w9WxkVHRCRguRNNoIQhDP8wCkhK1UAnRu/Z/G6fbV+I2hlhxN0e5Fx050LPkKjePDR1jTwL6z/ejuqLqO0wgqMa3vcUKaKbMSNaiztdhLoMf8nHDVs2sHnvCWDh3q51CmNukuINmZ+YkvyrVjQMPj9ob1+kBmv2CJ04WPK08gYzpP+1EyACg/sOx8TL2mS1tLzJoU1AooE3V5IQGA88SSlku3GkSviv39u7hfedZ+Y8aPHz3KW+oZNNszaPZ7T27FXDx38lzc0461BBpTHflg3JEWymiys3XQjcuxk0jIR+o6S1GlLhb2KABocrOaTgbz8sV2DAx4HAAAnbaDxiqNFTtdPA0ANMc2c8IosOpZEpBjHpnBLKm+BF4vY5XGtFBCgoQF5mYvTsaAoO6SnjjcrZP6olQmdgEaIQqfNjz00iJGYWqRCpAeuKhbX4A6EUpJgUX3hoElKFJVmAOovUDUzR0u1zNvKp1koFyV3/YgMe0TS7EJlARoR3yVpuCmpqpJcOK4S7xxqBNNESEFwp5SAECfpRW2+VxJW6DZlcEYh/btblMZI76sVVnv2g2KSYWWAABI/Yk3apBZf/JL6GAxVhgZteLjRy9M/0XhqrzrqUh/ma13XxyROPYAmk6qm7QGAIxiZfFDAhmI2/gEsiMiWj/zI/UEAM5qZtuEFKRq0jXQQ4C7ewqouLpuV8Zeni6mQLFyix7X+jdzE5VZVKATR+46gKNoe+ThFqFQAqBlh1uSq8w6oUS6e1qNCjV/7uPNBzwrKqlRaorWg0iseTSw81LzKuqto2OIr517s99iVd+wEzoQzbH0GjYmeEzgAI+q9AZlqoQL506fOhmf1aF5vpUyI4Nyc2TZd/PGYm/X2rvaHm6ePKCh8GlSYTs8qDjPMlK14G7OdZHbw63aGIwI26lnNxYA5D3IqHcYlWaZTJy38i0nM6P69tqfjyjaG934n0/jvsbq6c6jgZWTqm6HckzLLEM8TcQyO3M6q86xVcrd06V+QK62dvbWghCFKpUepLSDzBaHusFj2Lm+km4AAE2Oqq3s7K2hi0bVNoHY+owcM2LkYF+ZkA0AiLE448aV6NNnzipedIao/dA45igGqJe4uxLU6dNRm+fYcDXa3xYd+K2JBLNtxcxWAAAVGakNIgIYh/p1b+CPhhCa+6nIRB+he1+xwEtQGnslRVsiuF0+yd9ZnmZ0BVSnfPbwhasGCEGF7741d0Nf0aShE7eHH30GAGi+RCAGCtMUZKrqFaZxrp+cRzdzNIIEzAjQzKkiAKAxTdFDFQyTUb39nOmop536mmi07PmNo3tuHP3Fyntk6PgxQ/27ufYLcu0X/HbR0+sxZy+cjLql7mBasheBGFOUahjmpHeWycyuqOu+OR+ZLQ2ILjutHYsYXSS2AyCkKfAxAIDi0k6Tqc+xuKcuHGkH1rYVWAb3NV1Wfam8XtGAAUiT58UAABbCFyto1ChxnRhYd4ppmBRSGVMx82abd/1Jc2X2tVQAYA8J6V5nfsAuC+0V0HAwNjjEPbuuAQDBqGlOdXQopvWRTfABAER5qR1bDu0TixZpSgEQUsJr5hhk28iKr4ym6DIuuG5cNhaE9QrAaYQovBHbpblzjI5zvlz3Xtjg7jamBm3q9TO7vpw/d9lXP53ouKXKspc1YZDQOPKvMDkbKEyTWyewB0pILVfuDQ0WYyXRV1YsT25FNHUyJlaFAC33sx7k58IBzqNLD7X1z1TjqpyoO3oAw6AFQ3s24bButPRs5JgDgBC6PDUAcB1kgib35RCiIFahB9D3CPFxrRP1lxSYTQm2RwHTxKU8rhM4tDhKqSRQo8RtzlJJoyeCmgk6aLYZSwgA4Fk0lt2o4oePKwxg6D5t9NsBHICS6Ih25JitgSgr1gMYxDJR3RvTOHvJ7N6Nn2pNbTUVegCjecNNrXZgdHrn2++WvTnMw9ZUr0mNO7Ht01kzF/37h6MdtFQBgPskKS4bEJrvNd5LWNMGKG63CX1saWCrH91VNlF7hHQasG7h4vULF/9njJxs4jQYjWTcu64FAOGIgD54bYHyUX4D+EDT2YmX6u2fIGNnrHrXzcxQmLj+h1/vvr6WKgDoe4T0cq59Yhjh4zROBgAVCfHtyZMcd6kyjr18Yp1g4DSOTgu2b/Bi29jZWw/vYlw6BcAO7DXBoe51alxILzFQaIrqZhMT2NZ39hbpolG19bC0A9/ZtGbRhIEyIZtSP4o7vOWjd9/5cOO+k8qOWqo0R2pu1YRJj6GhAyZIAcAkU5lN1t6DJVkyautCNx5R/ueygz82Ey2pjVS+Ka6DtO6wjuk87RcH8hrpBvROkgoBE/eQXn5i5H5MBgns6PinRkf7t4a5cID7JCGDbOGJGATHlSdUCI1bTV9Q+TYpYUl5CaCkQCCtF5WdbQwbMLHZOO0UT2MoA4TCzSybXRNBTkSmU2C0mDRkumcTH7NkAuuOrqcY8xOj9qz7cPZbyzYevJhUVMEROQ2evPDr7at8u3YzyTRekWwECpcNG2tRcxEBp9Fj7AAAbiUkG5t4ERVOfmEbFi5ev3DZYs/GL7fdYrsSCxABoDrI7Uwva26pFgCAjXfct5ihNbx2j1miegYUDea25S0F76QD1055azifA0DjuNenQasCeTQgl8IT8xv2NBrDzSzEHMtGf8LaJDfkbwfva4E2DR359RKpBQ4ACD7cbftK76bsh+LfDmTogbScE/TtEqkEBwAw9Xf8YuuYHkAhmQ//ONYei659YrOUzwsBI+U93wzkdviAotEqLm1/gh4Ahn49aXFQpe1kIg7rs2tlTy6gpdE3z3RhQMhK0HJ1cszv21fNe3v1dz+dTyrslP1UGhdOP7rg999GL1zg3t/H3EbKs5RZ9Q7rvfL0Wws9OQDoswN3qs+RIgYxb8neqROleIUi8T9f3C8TNGg2OL+Jwa8ygY1B7O8zpS+PBu3NuMahmOgLmyIfEijIvdYfDZroz6+cbSICnmdYn2VH3/pjg7dVE2NL2c3buQiU9Zw1dExT9jYAFr07LgtQkHuv2+jjIQYAQKWSSVtCp0tphCg/ur9u3kWSq8z4/lgWBZTr0qmbP5X3qEo5iwp9nN7YGbZ+QdMmcStBiKIHqXoAsv8sH9cWpggG/LjiMoHSjlZuOIkpHp5uOnFf1W/kWfNe2IVN4+MfG4DiBQ9fHSaujEnD8ZTO+mPqLCnZ/FYTnqTIo8BgHTxwVCcktkHLcxUXwr//4M0Zy9b9ENVp6Q1oNPvaoYelADBw0qJ3ultxATALm1mz5o3m02B8euRykw8OIfl2Pd26ebu597Yzb3qZw/jszyvJRiAt+4X9O7CHhEVjLPOAccvne5gBIPGXrmTWqhvO0BmrlsiFLG36T38cSSZxC269P+Hr5QGEgrzvNxu8XAUAACY+jp9sHeEGFCjuHWnC0xblWzfRbi3FePWqqEFw/P5RFULjgje3jB3pya70ZBmwYeKb0sZ7bm3q7K3HSB68d0GD0LjknV2jRlXVgdfn01GfBYtoQBP330xuHLSnDZ29ZbpoVG0TVFnOvchfNy6bt+jTzX9cTeukmTOunzZs/7U533zVd2yQvYvMVCwVOPo7jPsq6Le1fayAwjQZRw7UuF4jwgXD/7vSgw/6uHUnfleQVvXbjLm4ORebF4EQxfG3yxCo8H1//Bs+lfMEzCLI7T+7JnmBsVGDwZISMrSgtw3u6ULk3ow1AJBYXMpD3GpIoIiGsocNI1E3eUfdz8fTKTBIJgWMcwAA0kyZezMPAIRT1w7uLwUAoHGT7gv8f1njxSOaW18hRYqiBwRC49bjF9o14ytMlu+OOaxCSYFw4d5p74bZVpq1NM6SDu8+e+cbv50ODeA3/c22QhelXg7/v4/fmvnuul1nErPLujzwBJZ361iMFgGW5M3Zbw8Xm2JAmjvJP5s+1RbAqL52QNFkGHaDqbWTt1s3b7fu3S2azD3WVrGUabWet+JWRmCi2Vy+iItbcE3MueyOTzvFtoADGHOF2R0VVQ+qsmX/PeN2vIK8jElAL7fVb0mrlmk5qB0AIJyA9wO7lVWqJCTv4tWdZ1/WWguqyYBib7C0LpZi5inNDryILjb1lle3uXvnzSFIA45VKqjcA2e3RDQe0iq6rZx5eGVjIUZ2bFzgzLtGBAAM2O64b3xsvw0W9145+eBSQyGBiAQYmqI4muI5xbfBF8nizRc2yyd/6i/yXTn5j5VkOYGZ4gBAYZqifR9fbK83YzvEGhziHh9O9Vsk4wbtfWdIpuY5AQAGY0z8om9rXGKQPuvfmFe1Zk+zza1QQCl3j29O21XG4kOIsmNvn7lYFVtIf27VcZ+908ZKxW/smj2FICugsg5gVDz49nNFF0eGQvMPfzZ/T5GuCySTONs6oEdYQI+w+h/QQKsj4z7dXLN3y8n27zZexgGgTeTy9VcbZz7Fn2za9c72BgN2ZQIbdIq7wyCg0JT0OEWTh5Yzl6+K37LRz0Pefdnv3ZcSdCmQvCoXXxJTPG+q5qzkPVcvj506xNH14wvvLteQFUCxctM+H3chsao9GE1jFGu2OW5b6moTOnhHqH85QeNVMo131h35RdlAoPHpF2c+Nx/3ebCd58IR2xeO1BM6Eky4OADgT7fVPjGT2X7/CbOvDNGI4DwbAABh2B/TxtRUbPPvO2MaCEfPHlQu8uljFTDwh/veOZkVBABKaI8tPnZK1aAkzc7LiYwuGxXMowGvzJfY/ByIN/X3+VObuE4bI88FL35IgREOxv4S2m2Bp+mIDTOHr9VrCBAKOADkjXXXStcMHdG0WKroUPyt6VMHSBw+vvreO5mlWgIAsMebf/0uqq2WJpp3YPVbOwu7oOkCAB51eGev9z4YaWE9bd6aadVXadDHHdt/ov3Z2zlZV37b7rZyqYeob9DCfUE11+msW+Fb7xWj1Q2Y4kpH9rZBAWi+y6L31y5qKIeGh0dG/hzLfl1OBpVcjSwbMD1w9/Sh5QRpinMAKEyTv3N1bKP8lqhR4vLF1cVNCak4OfOHLXEAAAih27P6os/eEV7u7p+cdluqKadxMz5O3j5w22a6T/1VlLZ29lZCs/PUm1fFOm8N6Cbv+fFpz38RRrp6VM07fnFdeJP2SYudvU06pItG1VZC8pIOf/DOniIDQOefc6FZYqHfnAC/OY0+0GgOLjsRmV97xyGhPcUAALjf2pmH1zYoTmGazI/7tic+X9zmyOt9pw5wtFt89N35JRUVJjgfpzBN0Y/bHk5ZOaB+dCODTUJuMtD9gcIUmfF5AAhpkpp1XUX3kFKYJiepiTy9jTEYwuMvzXEJFNhOn20f8W0WQpT+tClx+AZvmwCf/1ztXaoxIAKcB2BUJG9RmH003bYpITSmUR86ljdquth16bTDszU5aqMRaEz15Ju5NX2NxjRl/1t0yGxX6Fip7004IwAAIABJREFU7bQN06ZtICs0gAiw6vWT9uvHZqhQxZ3cEXfiR5El3sVRc1Gd+oc/jrnPm+Rs571qpfeqqss0osv65fcTT5qK690FYi3mrvhifD2Dnzth3toJAAA0qr656LsD6R3aVHvmZAuAQPZTQdtPMDD8feh6Y5VmW3DdPYT192wQc6lFVWwHmmWqNHbpOcX61UEKsEcFpJ8VuDrQKc0ejKaxvPRvZyizV/gNC7CUEGRBpvrm/vhd4dkdcHonbi8+snzJgDlhsh5SgXlFaVqkYu+3cfgGzymAEoSRrLPPjRCl5+ceUs3uNyPUVS4T8XFjmbo4JTrl8I4b8Q0n5W2gHWIRQndg7mHDioDgAInUUeQKAAB6pQlWHQ0cgOR3s+1Z3+aicZ6bnFf9X9EVvCbbAcVOfb5+8t7EJX4TAu3dJHwTIIpTChOi7v66OyWjy6OqobriTh9aAAAQIj98bkT6MGdfXxtHR55QwOfiRkKtfabIjj10+2hUJ5jHCFF45XbZ1EAeDezCO6kPmh5IKEPEzaUJT4Pn+w4PtJNJzMyAKskszlflP4hPvRDxSNXEd0heavbaGccWrBk8wtfKSoCZAMWqaOC2Sqo2R85Sdps/S97fS2wp4OhLNFl30s/uiY+I0zXeVUOI8vjFR98M8pg1zaN3X0trAQ9KSlQpJcqo+3+E16zxo7TYUu5p2yCdY528O5wyQeNsFkbOwdilQLw320MuE9q7V/olYBZNx+nmRlx6tD64D4fIjjnW8mr9C6ExDfHbjD+erwgIG2vvJOYKQPfszqML2+N+jeOtWtPct0heavYXi04tWOI7WC62dBSJAQBMNe2J1YHqil54rrlD0Jg2+7v/bkoZMy5I7u7I59HGclXGo3MXTpx4UtyxJHLlZ/f+J3fI+On9vN0lAlOjPk+dGR93+rdbGZrXxfJsB0jqphOHlP3fCevRQ8rTlWhVcQ9/3Xwttv0nvUhOnPLDyZr5KwYG9hVbCky1KVmn9lzbpBL+Np1GCWP9OVzbOnuroYxRd96bnD17Sd8hfW1sxaYIUfZckR176Ob+g3nNrFG22NnbpkO6aFRtHTRa1jVjDxggPObTvCxfP0cvmUBsbSYUsEnCUJSZ9zAm+chuhTLvJcytSK4yZ/WMP+ctGTgywNba3MSkpPRxdPLhzfd+kblNaViY4qjzlCroLzVR3UnJQwAAEIK4eqdonlSApGQltirMFc3OK/r1TO6I6WLb6YOCfjwYlU/SBy/PL1G/t9Db31MiFLDKMwtvxtz7efPDrBUTPmpWjvHpF8c+yfObHersIuU7mgMAycYFeL0ghRSmfL5x3N4rs/uNC3brIeOJBEiFujRbXfTkztNrEQ9iOxRIuTkQQ1Fh10coRMvSLn+4NW/mmDFD3GysudxynTr90d0/o87cKOpIs+kise0AMVqCqxBQHTxiwiD9s0G8+7gCgMp1BFtXaJaT1Ok3MBb+/VYzsG4ZswOA9Yz/+3mLxiFYnbbM3hsqIo6fHr+8fS5PbQIPubDoAxknYfWWjw7+dcFTGRheQTDZljd/DBXqo69MnXuvlBmqGFqLZPquvbOkxWc+eXPH/ReXZBUNe+/aR6NZib+M/+RwS2ftXgxKSB23XQ3pA5q9I/b+2uUHIvCMEPm9rX6izEcLRp5/9JKSXTEwMDC8NEiLgc+m9IByhfWBWyadOp+nBP1UYXJgZQn2nhO91jEWXhKv3ZlVAAAyDZRaQKXans2keX5ZYGUyS38pAOQn3WYsVQaGTgQlpHYzgkU00DcilIylysBQH0OgnycfsLIEVQpjqTIwMLxy0JxnvdwAM0CionMtVQDASkuABqAlmm6ddGiZ4YW8lsYqkE4JCaCjoadnaecExm8FNG46Yf3gqUFiYfUtUalw/sax/XAwxCpOv9xg3gwMrzY0bjLs04DhOMnOTImIZFaCGF5nWESI76oVnr1qI6ixLGcH/HuSiIaKs4fSOjWzNAMDA8PfAdq0B8g4UJJs/aDzgz3QRhU81QPNAb83Mt6clDFlXEbP5hMDMHSY1yvKYi3GJ+aXTEvssDIBmOW9pHui9iN83pje5z3CqM4tLQeWlSOfB0BmqrZ8cauA2flhYOgE2IbZfkdW9jTBcT4ONJBXN8fd1r+mi3IMDAAAgBVJxaOWdh+zdFSFWqMuIXBrgbWAA0A93ha1q3OSlzAwMDD8rSiz0ENSIpaR2OnbqgAAqM7xyvnMMm9wtPx/9s47LoprffjPmZmd2WXZhaV3EBalKUixADGKDexGY8tNNDfRNL0mN/nF3NQ39Sa5pt1o4o2maG6i5kZjiREbaBQLKIJSVEAFFJa6sMsu7OyU9w8QlqZ02/l++IfZM885M3Pac57nPAcUtmCNwPp+1acGhPv35doWZdkWDWB+yMQe++a09VjPkMFKJy+VvYmtLao4m3huy/qs3IFSlzGYex2iSmllr2QIEGrySo9sSFq3s5ehlTCYux2zY/K5TR4QFuns7Wnr5WRTX1t7JeXKkR9TtyZWYxdgDAZzL2J9Pde6N6er3wrElnufOAAn+jELTDP3r7LaKYXPb4p7vj8Es1nrU7LW94dkDAbTiMllTeLENYm3uxgYTHcRmOKrL/l80R+SyeySH18p+bEfRGMwGAwG08/cl9GAMRgMBoPBYDAYDAZzZ4M95DAYDAaDwWAwGAwGc8eBlVUMBoPBYDAYDAaDwdxx9O+e1XGjjOw1+fkcaZ9LruZq+lwmBoPBYDAYDAaDwWDuELBlFYPBYDAYDAaDwWAwdxxYWcVgMBgMBoPBYDAYzB0HVlYxGAwGg8FgMBgMBnPHgZVVDAaDwWAwGAwGg8HccWBlFYPBYDAYDAaDwWAwdxz9Gw0YM3CIKiZ4jmrYCLmzi4SmBU7LVWUbc3ZXZWSaubZpJbo5yreXOlBgluSb1i2/Xtk2gXTEZu9xquZ/kQACpzXX5Bkv7q5JTTO1E9gVJKXj6NWrPCgQCZZPWlxwStv8E2Hys1q21t0FAAAyX7iYmGtxW6hNzEJlgL9UIad4A1tz1pCxuTK9oLkIFPGk04tz5RIDt33hlQtsm0wRp5LN3OgZQqOq9ZfXb2MRUNVRVq++62rTaTmJ7FW5v2ciTmU9a7NbMACApODdnF9ThOYUIs08sNEnRgUAZM0P+eu2dF0sAEhMC2xfX2JHgFmS3/Cf5SUVFs9qWqB6fYmCLmK/W1ZcCozfGp+56pu9UwAAaJCmGt57s5K/ZcJ2iComaKF9aJisuc7UFLLXM+py9tVc03aQnvSzjpqjGjxc6qAiKFasrzJr0vSZu6svFTe/HMmgT33nBXWWoYnJqF/9SpkRQKTlsZs9YuUAgArfvbSl1euVjdvsNVJOXf8s97/7hG6J7TISTQzz7hvu1rdOiTKfu3xijuszcZREw21ZVpjXto4RrIvVjG/cQ2lk+PXaug11HEjMTzq+OldhuRIosqJRYy7LqDuzveKyxuI6bT1hl3tk57nXbS5es9GAuvFojS1Ccat1SJ7S8r8svpLHdr2xS0omSz9/wQ2BcGRh3slWNYS0e2fQshEcnWH89JXyOgAAidOH3n8NI0UA067SL77SiRYldP/Q7y9hgpBUsfrjGhG6BWH/uu/SWNLiLtFs4HWFpqvJNam763StEjc2KFUnr8Kyglk8vpwOmKsKiZF6ukhpWuC05rKzdbm7tWdzm97EjfrZ3PYt71XEb3MdDqTmswsb9xHd/BBdewEYDAaDwdxfYMvqvQAiolQLNvhMn2vj7UVJaZEARKskrrE24z/yHeXSPr0YGKWSABJAYlbLgztI0DY9AYhW0U4jbB941+vZ5+06V8m6VFqBZobEWi6TELJxSqcOUpLiHKcnPnIZGWZlIycIECRyyjFWOfkzv7nj6BuzVbE2TVcLBC+Xqv06kKALIv1oABDzU9nuzPgtqfeLsaUtZNaFMiGqzpN3FYlZrYgI7L2cnkGIUTYLN/jMmKGwrDNOYfLhS+weW2rXLr1EvsBt6Vr3B+OsXFWEBADRyMqV9p1h8/Ab7q69KgnrO9nOqlcS+huuYlPFOQPFujDjH5K3U65I1QLbMJqntA1Jm+s6W8dBNJJ70b4zbBesVU8OvZPXCPu2sQMAL3/ALpC+dbqegiRyyj5IHvGc21Nr3P3lvRFFCKHK2Rt8Zi+08fdibjQK2jPObtJn/nNj8GCJwWAwGMzAcyfPmjBdgmADZY++4eRDC6jUlLqp8lxqQ40ZGE8r73FWoxKU7dIjQc4EBRGIbTibKkbGWvnF0Ie3dazINfx6fe2GOhFERJPyQHnQYvvYIEYW7zS7oO773T3T/QTSIFZJOPcYe6vdzaYwSXCMnNIKlSrCQkkiTH6Svy5W2QBic3QH1pZdKBYkflZRz7lGq9Hg5Z4jcwtSNQDAW+eK2QaIlYNHqFTMbWhTKtdQGyvgyCL2YnHbkmSsKjha1O7tsIg1WF4Qa6oJ+5G2aro6p8n0QbqMU9mCqK1Gtu11uq6KbUo8dLrtgdyaToyipqur8r5smeVTujDp8lWuNoAyV+UfKRKanxSxQjfNqohTMVNfcfGWi2KR6fjGivMZRr2ZkDjTrmGKgMnM0LbpSTTddskShTWghgzdn5u1l3LrGySUMkjmP1k+2kvSTr6ZTNV9+Vl1+1IhVmhn/6TEMPtwl8pjmnapeyX2FqJcUsw/zMkTW16vxOsNn5lBLJ1q+PyzFjM1YhFrEGhg9+yqDVyosHvYJWxfQaalU4AnNT9OLgJR/HNRtgEsqh9Pac1bFhdeZQGAIF0Y17HKcYtsneV85CsexU9ezWlVH6iqHy7/tM/Uvk2JBqGbDY3jN2nWbmt5mwIjf+Abt3CarPnhyiaLLBAL9RbWvH5o7I2QnEoSPo7K2dcjh4yOYekc05evlOhZEGmC9pR5T7eZFK+wUlvNfMH+q/eqblQGM729cu2+RscR2utd75nqVlWIM1iaVRHnaTX7TZcAuUBozad/qEhPra82iDJnxi1GGTnTUdoFK3xrevghMBgMBoPBWICV1bseJvA510E0T2i43/5elHtjGs0V1OUU1GVvq7ZvqyNRNSOIQJojM0yHU+pCYkm3KJV8W2culIgHEAEBK9Rm6o+/wpr+4zPRlfWY7Oi4u73zcFcQEcvmZJOxYdZDVWWntABA1geS4a5kXWLttXilhfZHOi1086R5UsvtfqOkcWbP5dYffO+6zVqvIDkxepoibYNeBEAsm5ttfmAEOITZyLc0tH4QiVeYXASxPqO2nSqEzNWCsSNn1zbJrh6rsp7hGhRF5KQIACDS1PDhJJVfnw1WMR0oq10U26i0I/uRdiHymswO9FgAAN4gGFt+EnRNdjuBr+Pqb53FTSDFyYphcp7SCjtfKMxqykIwFTdcLW64uhtSXCz7BcSpmBlL7KxB5FIrf3yzqrrxMstp0/SpabpMT6adyUlELBi1XVGhJbrqOms7adg0+dENt3R27brYLmEwCGDxeuubshA6yoKDzTXHx9qMcSXGLVRkf6W/oXiRHotdB9E8ka/f35FGJ7DAAwAIvKa+cIt5nYF7+TkHmYqOjKNydlsqb4gzmOu1QjsBPQGxgtFC+RHpxschzGbeqL2J6tvnjR0AEK9lTSrkPdlBtU/TqzrbFgE1vltWaCgwXPzcrKElz8QxkhH2Q1VVzVsMLF4Fb2LhplVI4v2cU7CcJ7XC3heupt/oL4zFDflbTJd2az3tuv11evohMBgMBoPBNHPXezYRLh8uSLr6t31fBxBAOs2PeGPPozsurjx0dcW2A/NeX+7V2odN4jU/atW2Rb+ce27/1eW7Upd8/nlMXHB7uxAAiMr4oBd+mv/jueV/XF154OIzv/658J8fjp4aLevmDqv+htSHSsaqSRHoq5uv5babDCItV91uG6dnlJ0VMJUZNWwGn8dSfJC8i75ziOWz0wwIKN5L6tZzvz6yOKXa0OIJjOQxSieAvGSD5QxSpKnhwyUikIajVbkWGgWtMR8/a0bAy2NtPW5cvZRWZQZS8Jf7tioV4lTUEC8AIIvS6nr64ZApzZTH1vvF2JIAAJQ2igpRSSuO6cp6KLAREfRseioryJmIeHrgK5WLWkmCKGTX5HakJ+s1lnoUhWZYB8tFghVOfXVDU20BmYrZ+l6UpDZJdxU4m/EO6n70FO0DEMslbymvA1EW7zKyyXOeYAOlU2IlIlA56zW3NgwDx+wznTMAgNnJz/oO11X6qLFzZLYxrZTigpSRHXjp9yHClZRqIyCBlrh69eB2wugnHRsmEUFS+uu1M22/pUgYzNfbumb0K7xzwt/e+H9vv/H/3nxipOIOG3QwGAwGgxlI7npltRmpz6vx334UOzbYTsEAAGHr7zx+pq9d0ziPeKVqws+LNnwUPSnC0V5JGkyi1Mlm6KyI17c/+kJ8GxWUtF4+5bt1E6fFuLgpkVlXpzeBystpxIKI/3tSTdxZEwdCEWNjBwJpqM9O7pKXnUhTwcOlIohX0+oJLX+hCAm0LDCsi/UAmQDxAABiLyqOQB5jcwwm9xh7KwAASXCMlURjyMq31FXJBj/SWw4AlCbT0PqVExdytTyQvAvj1bRxlFem8flA8HLGp9UWUEoXBmoQSENDXmaPbVYiUW3KzBfJkcohNAAQnjEqW+AupDT02gqGSnZXVIDJbZyjY29FdTtrkQYAEdFkF74jCohSEcCRObqMLihk3USQFDeczABeZR0VdYd3Rpx0X0NiviDSEP2YSgoAQPsvdXYFHo5V7O9aBUMsp9MBgCCxJu7wp+2jxi4Cy6cc1goAQycrB0Q/F6EnqjUlxkrdQCRYNjupNz7PfQUvdw8JHxoSNjRysJN1X7kSYDAYDAZzF3LHz5i6BhLVwS8vC2g4c/7rp7c8PmHDwqlbXl99MrNlLVwy9KPpr0bbkOWan1f+PGfIv2cPWRv/wM8f7i01MfKZHydMcmgRZXZ0WLFisApQ8Zb9fx325cxh3z407KuEB358fXXaqWIz6tFEhqTlcrmV7c3+5HI5TXZfsrfaigCOLKwv6tKuJ7LBjwhS8ZS2Pq8YAPgrGXoBWM8ms+EtofyDrAgQUHV7g23XQYLZnHlWgCBFoIqsDyQjXAnjsZprZss0RI0LUgEA8DWaNmqAyGvMRgAAiarJhCLQGu5iPgCI3mGW8W8Ez1A7KfBEnr4XkTZFYOF8Sq1Jbh0URYq0JGwkSeXXnesDM4uIcvmTRRKzWjlqwMMsVRToeKDEMJtJUbfYCSDSEk8vAJDo8+s78VbuJVzOvjIjNAya7tDtXYEDDZu1vqwUCCLO+cFAsiGGTggiEItSNlZ1ccesSJM2SgAgzHVc37j89iN90tgBQED7jBdZUTq+X8MsES6htgwAAKftSdvkff2UJPCEpr6wT52VMRgMBoPB9I57Zc+qxN/JNengU49napqUSUN5dtkJECmEAKjKaP+XEmzBVPfd41t/ym66RSiu2P/8DoXXs88Fq+ctsN+3pooAAKA0IU4hjIhMmp/ezy3UN6ZFbHH1iTWnTvSwdJz7E5/+Z5rHzaenhOHka4veTe9eFBLSXgUAIFSzulslbcyEilE6gihkG66yAACVmbrauVaOwxU+dHXBzaakhNTPetBCxRQ1AKDa5MpeKGsisHA5pdoQ6x4cy5z2VDkCOp+iF8HSFxlRdpQEAECsa6shCTbVYACwBlLRotxwlzL0glqqClQqwFDXdFHiFyQVAWnSdAaAdosMKGr9kKi2F3lSw/64pKj10/HSlPrLi+sHx6hYaAiTSyuOlVQDdLBftXtiAbH8mX2V8UvtAqfb7c3tIG5Qv8GJuwxnZ6gi5GTIu36DcgyXUnWFmQ1Fue0degnWGexpAJDUltV32auA5mLtX0q0b3e98UiPNu2At07hT2mpsWG2ES7lR25mvO2W2P6Al2U2/H6sYWksFb7Y1WQntQVk3FVysquNgTJNlg6VA4CkvMDY+mWanZ/zW/Vc+1vEk0su3fSd9Ad92NgBQCQ07NEMPmiEvK/DLDXJp12s3Cbbjp9hRQBHZOjO9eR10UoXUgQTWW2u6uotvO2SQa8s6UFeGAwGg8Fgus49oqyKyFTzv/ebNdVmEAcAYI6YEeEDYE5K/SW79c8mcU/SlWeCvfzDPa3EqtaRZGl7GwB9vxa7t4g0kioBgDTXCV2bqpNDwxQEkNczGyPQcqpMMc9AqlSSQD8oyG2bWjrX7eW5bfM0Hqv+ZbOxd97QvDyVzTGYomLsxzozEk19di60dt4TlZLGqilwprYFEFnCDAAgktYEQONzi7Vputq51vZBMjUNGSwAEKwLGuwFvTu0phGB1pjT88XAkdZTaKUCuBOHGxAwvRLZBE8nNpxbDFEjbcPk1Wf6x3DZESKlNR58uZRb5RTlRcqD5MOD5MMBRJYvO1abvrnqfMu5qUiwRlYAAKK5rp+0QRGxbNoh/Zi5irBpij836O8sR/u28KUbqnJGuAeGUSOBJ7WmA50fVwMABA0kCwAEuDAeYxXjF6lkwFNac3pSn+tsvaXfGjsA8EW7K2tGOPZdmCWaDaKXJbY9VYcvYvd8VNEj+YJCAgCIrxMtark08nvv8U3nMgmkgd+x8HLOAIXtpS9vWDZ7Q9M/98gojcFgMBhMT7hHhkGByLtyJL8D8xkAANCBQ1UiAESEfvp7UOufECgVJAA42ToCFAMAcG5nStN1aIrSbsn3s21/yTmRXHghv6GtxtQ9qKKvn0r4ulci+gKCdaFC1ADAX05rmisj1pydx48MQz4xcjH35uFYBUIrpH1anJTG9lprEQkDfyZbjBxhNQrAuEt7rbcCGw+wQbFyqU8oZKQBAKkPlXoAR3VwaE0jnZ0xAx3qjOdTak1BDpGxZiq/LutmpptuiRUJA5t6jI2IswqNp09vG0g1TYQC3eFl+tRQ66AYpVeYxMuLYWjSJU41LVYVtLZoy762hwB1h07PmGl9WEgzQv2+2qtzrQaPt1Nv0l/qM7H9gUBrGn7fpR0yV0UAdb3tcTWWkJyKnLtrSOuLIsFCxqdFWe1idHd4dE0nJx4NAH3Y2AGAV6SZUkupiUG2kX6aAwV9ILE1IsHC1Y0lu7a188PoKj2o7GTN5sL/7rJ0N0C8tdXE9W7BPSwDBoPBYDCY9twjyipAeW1nvmoiwzgpAQAoJ4cgp44SgCAyzW9CJHXV/34jxe/dmCH+Xg+/5vXwayCY9NdOl5/adeqnrRV3lKkVsWKDDkDON8ZruZUfKVUbw3gDRxWxBS3qlliQUcuHKWzDbB3B0OaAivpdJV9vMIgAhB3j8ZBq6gx51N89tC9cbhctswcIRckVDSPcGCDyk9sb05DO3KhOE1RbEyZCtCABAEC8ha0PsaZLZ80PxIJ3qAKl6UVAXqEqKZAdHVrTdEfXzphppNETGAbTTOWxksqbzW27JRYAhGv7qjRxlPtkB9dtFYVdv69vEI2Z+tOZ+tOABDnlGmsTucB2qCvh+5xnbGZeigYARKJONAIAIEmLHfvWYrt5xozAFJuPZ4BfmHVEDHUppa/E9heVmQ36uWADQlFGV432IivWV5k1afqz2yvzO6iRfXl0Tc/oz8YOAOLRw9rxC21DpiuSP+9N9OhGzJL8hq//rqkFADnpEGs7YanKZ7HrRE3hbyk9c6NAejMACBSNLDrShtOPXzwLkopx9Pur3DrY1W8y17U6gQYJLMIHpmIwGAwG06fcI8oqYTLVE+jmU2nppdVfP7VG12lIqZZJh2DeeebZ4xdGzgoeHe7mF+IwxFPhFaPwivGLCfr96bcKerB4T9K2drc+Hoar1dZ1c67DV2kBXIGwo5UAt1SRgqNUEiA5L8lfEgMsLosEgFktCXCBY60npogFjhVEANDUX/6K+9lasjROMvFl58K/l/X03MWWkstTTYcStR4sd7qd+zGAyFWzAgAByLrteyNq7Rq3t/L6OsvrKDezyhxrpwyS24JeC2hIoEQEoheH1lgi0BrTqW019Sqx+HBvTI7t4RWZfEoR9ZCXTWRoLzcH9gaRMJjL9lXtTDVwG7zC5OTQsdJjWxoQCHQZqmLBlzbbOMsQ9J+Prnh+X4U+zGHQZDtFyh21ItRjeEpr/nlh4ZXbXY4u0oXGjsxwS+9l1EknbGZ21eXMsQl9wDFgfVGvPYFFxAoCK3AAwAqa3dUbQXjhObugv3teySnI7Il0tk7DIy+Kc5HYA1j2gjxA79xqMBgMBoPB9IZ7RFm9GchkKtcBgNneUUFA1+IQgQgVdafWnzoFAAB0sOfDr8UtjrZ1Wxw3/5eC77JvcXM7OPcnPuqfAEuiJt+AgmS8t8yLBu3NNF0kyOmQIFIE6OQsCmJIFH10903sEnzpporzsZ4hQaoJMVVbUnq56U4kDOz5z8vPd/yrYKtBlQAuQNq6EFBg+eYQ6SKxAgAwa1t52zYeYCMJUiNfOXHcjvJzFUgD24tDa9rAl2wsK+kjWa3hzuyrnLHULnCyMrF3h7f2GpHScmfz+OFhnI2XFYIGAEAsW1wEUWqzQi2TQ+v1gb7ErEoxp2mpcWG24Z5djK2L6T86bOwizRIsdLhdu7FHERErmDv4FQBESmtOTeWHxkrD45hDfV1acrdh/2SHmWpi3EJF9lf67vdNxLUCHT/CFrlYuctBc3tcrzEYDAaDwbTnHjm65uawuee1CFinCP9BPTIMsdnXNj29Z58OAGwHqyV9XLpeIdak1FQDwctlweNuvvBAGsJQCC2QBjZxxsWP4i3/CtYkNSAwOUcpb2r9FWiN+XBSAwJWvdDZ4WYpew8vLeALDQDAuYTKW+vPojpQRQJPakytDTQCrWFz8pFAS33CJPowygt4yO7NoTUDBmed2JBpQFSs7ehbm9/7G7Fd/RYvpGkFoPggZZhLP2aMWHPKIb0AKGyy1R1w0OV9ToeNXbCuRo0+4UxbhVWQ06QIVEMd34myCgDC5X3l1cB6TLZ17ftE6+M+AAAgAElEQVQCc2m7NfUgyuKdIlQ9uF1gU43lgARaEhJL3wkhvpCt25AhQ4KGDBnsdEeUB4PBYDCY28R9oaxKsnelXgOSDwl5aoGynaEN8UqFt2fL/yIjdqT28RQAAG+CzidjnUIVff1UwtRbkDCvu2ZVAOBlmXxyPo+A9VnoEdhuliaqKLumKLuES4ydFfBEnqHdETWoOK26ASgxTOl/C2WJr9hdUQgSs1o5NqZ/qw5izefPmhHw8gfsA1tKRbAukpjhEhEI47GadmGZhIIMvQC8Z6h8cKi9BBhNpu5usJGIhMF84pRJpKUhsbIenLXbfRARKvd3af8FCdaFDgsiRWBqippjwPL8vrocFgk0MfJZ+3YH9ohSF1rWN6Xixd91V0CwHq8cfEetCN2ntG/sgqxIuM4CAOkZatlHIkEu8/MHaFVtOhCoSONPlJK8Wh7h1eel5ayTTcdLkUBToxcqur/Ywcty2aMZPAKz+0K3oJ6ou30LicY8+cEHH7z7wT9fnxvOYm0Vg8FgMPcv94WyylkfL/xkrxYBMeKdRf98Ue3r2HidsA33mPr2hPXHnlwW3jw7lhbNGvHTnmlPL/UL9Gy6SHg6xH+UMF4pkLrrJzqN/nK7MGWvLStmSd5FMvNTr7hxcpWcQDSS+8n9n3RZvMEnyA4AQKSJ4OFSEWhtrq7djkBOmSFeASTQssCwm1cIwaqAO5zKI2CHzHFpf95lnyJe21ZZDCSnYuLfcAvyIykayQKtxr/uMkwukAb++O/t90+KtWm6WuDkYbajgyQi8JdvdmiNKLEjrFQd/NF0p/d0pdg9EstX7q7SgFlpJx2QealEH2b10DfqJ153iYyR2auQBICUU67jlLP/6TaUFkiD6WzL1lyB1ph+36g1AqJGOD76odvwUFpOA0ETNqGK4S87P/WOs21b+UikocOXIJcTndcwgdawf2aIgpy07fhd9UzsXYFIySWyjh/tdhWpfWMXKa35dIYZAee1zCdhupWDnEA0YR1oHfOu0yi5SLBcxi12dHOn91ULgGw7OaS4NyCWT9lXLYBgNd5x+A1tU6Sb3yTJ0NCmCrVuklzu+rKLTR2p94PjrBo7UlmgdMZkx7u8dmEwGAwGc/dyH+xZBQCAhvRVO1bbzH4+2nbUiqmjViDW1GBmmBvzQFTWyl6KbIL9Hg72e/g1xJpMRhOhUFIkAAB/YvWB/b2OLNTXCHSu4b8flS38u7O3qyxqlUdU658vAwCQDX5UkAoAUGFG+9mkSGnN+UUQ4MV6xijJlJqbRlvlL+3WVI9wVwUpH4jS7Ejrv/ilvCzX+Ov62ieX2liHKaavVTSXFrHo0prCU5r2IXl561w4b6DGeEHIzQ6taYQI+8g/rIPrZM0P+eu29MB+3hWxnSnPvCyXO5kPM9U9zbbbIIFGDrE242PbHFYpIla8uKa49evl0TbtD9bUIwsVNmGKSWGKSS0/cVRRe09rCT/C/tnN7VczBNLAbV945UKnvtlCwe4KfZiLdce/9ljsnQ9nv8Trb0vaX2+Qpho/eLOix9Wxd7Rv7Nz1z8qPfeQS60UOe85z2HPNKUXEoktrC0920Cot4ch9hpxFdiG9Wg/qVLhkt/Hsw3YRcjJ6juLsBr0IEvYh1ctLVBaqpmUVoq5/lvvffc09mMAUGLa/q1nwiouPq3TUKs9RrYQjzd6ywoGrYLzSutHTmqzSamjsFo/BYDCY+5f7RVkVSZ3uj0U/np0f8pcZgcOGOtorZUSt4Xq5vjj7elriuUOJzSlNbkk5b70PMaO9hwy1d3VkbBneUF5beObywfVpO9Lr78hpg4BSajbn1ActVIWGWbm6SGhaZLVcVbYxZ3dVhgYACCpG6QgCaTBf7iD0LgDw+TkG5CWlh9v4QM1Nz0HkFWl8chE85MUFLHRSpWl6HdjzJnCmbZpviowPzLEZ7C9VyAkw8FXZxrOby8/mch1+CMQ2XDprfjBWIt7s0Jo7Ez41uXKq2mFAWiQr31j1VX5DaJS1V5DUwYWU0QRiBZOGu55jOLet8lKx0O71mvUbSzakWkdOVw0ZLrVXkSSIDaWsJk2fubu6tM8KxlmnmdK0MO72+2FioKPGLlLauqPLrxY+5BAZa+XuRctogdOaKs8aMzZXne+g2rRBpLTmk6nmobGSfvAgEAkDe+KQIXKGTJngOGyzPrPbewAElFa75cmGIXNU4SPkzi4SmhZN1Wxlhj53W83Zgl6GlOsWXOhgXwSADGnbdly9IwcdDAaDwWAGBhQ63BcAin3HS+qrrUs7ic3aU8aNMrLX5OdzpH0rFgCquZo+l4nBYDAYzG1GlIT87du3x8qp67++tHxzHnZCxmAwGMx9DB4GMRgMBoO5UyBY35BgORCGc1t3YE0Vg8FgMPc5eCTEYDAYDOZOQVSFDHUEqujgpqP1t7ssGAwGg8HcZu6XPasYDAaDwdz5iMZtr83ZBoAXkzEYDAaDwYMhBoPBYDAYDAaDwWDuPLBlFdNzmOBvvKZ4kV1IaaYy6r54pczY70W6P8EfAgBI+fMeT8XLuvAWBMLA7Vl4OeuuOermHn40XHUxGAwGg8HcBBwNGIPBYDAYDAaDwWAwdxzYDRiDwWAwGAwGg8FgMHcc/esGnHzSiqtuAGjo11wwGAwGg8FgMBgMBnOPgS2rGAwGg8FgMBgMBoO548DKKgaDwWAwGAwGg8Fg7jiwsorBYDAYDAaDwWAwmDsOrKxiMBgMBoPBYDAYDOaOYyDOWRVloUV/CQfgwaiH8kLrM5n21fwA5NsMxc74eOEctUWeZfn/XJp1YSDL0GMY1d//92CoaPrjH7u35tzqcyEiaObQ6RNd/J0ZCU2AiMypR556vy/eNuIVV6fMBh897N7lXTKgn+/exjziu5f+GUdWbdw6763rt7swfYzIMDEvPrgowcfXU8YAAEiuf/nj4k/KxNtdsO7D1L84+diKQRaLe1zi42v/lXy7ykPqwwP+t32CN1R+NvSn3/W3qxiYexteHTXzsejIQCcbawoARLFg76z/HGBRb2RS2rHPHvu/SVTmD9P+8St/C1FOC9Z9/6hnzR//eGTtud5kiukleJzCYO5qBGvviGWTJ0R626soBkAE7vK7b6w5LlimqVXH14x3g9zfvf4s71Uv3xmUbWF4OHg5gUIGNIKz//NO7ersZSCUVQA9aMqBkYHKFnxVda4yZmuKtWlAcgYAAIGsuFydz4kAokQu9faUDVzWAwlh9p4z4e+PqiQiMhuNtQYOgDJUC7e+sSsYvcLBh4LrmZ690VRFxvWVi/Mmdfp7fw8SoveHi79foBKBJ7OyHp16uLilPUqE5eMPvTSEAIHUFb4euesY27MskCx+8GPhtkTB1XVb7/PRjgr9aP57s1QiEPW1deUmM0KSSh3HN/lzIFHtFD/TLzTYzd9f6eqklDCcqdxQcKbg8Pq0Hen1bXpKwtPxgXkBD0Z7BfjbOiglvMlYnlWWnpi+eVNxeUtXIonf8+z/BfNESuq0RamGtp0tUzgzJOOLWGsw/fbQujXp3XoWzupaVVa2lBIBgHIJcbTryQu5DYiMbPyLYWpgz/945kRx7+Uhp7fnb1nsQBUVPDVhb24P28hN4P0fix3nQVUePrn9uLnPpd8+kEtAzOK4UcPd3W0ovrZak5mRtPlQ+lWul2JFqVPQoslxY/y87GVSVl9+peDs/xL/OKVtk4xXuAXFDx8eofbzcVLKKYKtN1wrzD12Ium3CxWdF4FXRT3y0dyRVgAcp6+oZgGA1xvvhz7tdo9T5MMHlz+tBgCiduNvs9+6atGToRHfPf3POBqAk6Qcj1t0luvhlBKPU80M9DglMtaLDz6x2BM1JB1+5PGMmrZfkDLNjNzxxUgHEP98+uu3E/upGyTrgwd/v2fSEItLgomtLasrSL+8b31qUnbv871XO/Mu9rr9JZaQqYb7DQlSDxri7at2crChRFR/8fU3/3P6Zn6ySHSKfH/Zo4MpEThTtb6KN4PA1TRwbbxrbfPSa8JdITCqNGuPW3UvH6j9E9KFMfEQYAWIh9oq0LKg68YIOBDKKqq/7L37MgCIViFF86PAalCV50nr/IGzzgnkiTXJJwAARMnoYf/+h5/VgGXdB3A1xXUVEpORvZXaiazGTHCUiEL+tl2rN3H1fVgExNuWj/AF0EFG4b3hOE7yIf4TQw5/l918hZiUMKQvno1Co4PnL3aVJLFfbymDW88kSGN5ZVmRpLyCQwD30KSBMHk6zE9QiSAcW/Xd21v1zbX3xkuWGOOHv7Si+Z2LACTlpByWMHxYQsjY1Tv+sabkxolXZG2w+7fbZ4cyzcJFkpF5RPh4RAyaNPPc248npVY0/ZCUcv3FYFdyqGckk3qkrSplHjnaXwE8VXQtJau7j8OLW1Ne2AoAIDJOL5xbOJ251R39DGWqLy2uZUS9/hbLfrZRy0ZMAhOd2CfKan+DfGeNmB/OXNZl/nrcfG/0NQCCX9wzH00OkDf9S9rYuY+JeywqwOetNdvP93wcFOR+Y1f/dbZP0yAuUAqH4LAJIUMC16/98teKFvOnJGrRprmjpBZ3UjKbwQGjBgeMikv76bX/na7uuJtCCdEjrUBy/cTXz+/Irmu53OMCY7qL2WFcQOj7V881dWXI7Og0PobuC8l4nGrkNoxTyNSwfvWpqV+MdIgb+deY7E9bK3IiQy1eMdIBwJxyYs1e80A2N4KhVV52kV6qqISQiat/e3N9ee9UzHuzM+9ir9tvYkXrqDnvTg3uZka6oOgJQyjgCpP/9p/dl5sHnbZfRUTlysxy3Vhnc4SHeOBa31Y+BB7gKwPEwomd3pnddgcbGMtqE6iuAMqjwIMGOysA7LrWJUz67547CAAAtxqjZDZurhyAPuNIfT1I+rQM7sHghKD2suv1vllikF5a/d2rW2vb9V+I1ZkGYCDkyo06J1VMvP2G7CoCAIA0qF3jg0lDeQ04yZX9XwALiKxXflo0oDkODGS52tmTEUhdSdJv+o7WWURaV5uzN/NM+vW8/FpNsaHGRKiC3cYtGzU/3HbYS7NXZH/zr+SmsZIGuZQh6/KKjuzMOX78en4FB46KEfNili7wUIYMe+uj6hvr02LJ4azSZe7uSpeISDhyvE2OkpGRziKg2vT8zL43CQ4wvCz78msPXL7dxcDcEgTeY16ZHCAHsTRjz4e7D12qI/2iprw4K26Q27iXZl988tcemjAEmdNTC2f7UKi+JOPLn3/5s6JW5R3+zIK/Rtt5LHlsRvrqX6/cmGkQFMUAW1Jw/uDZzPTCkrL6elsn/4njZ870U/lEPfpaWdHzR8vJdvJFyt3TCQD0aekWmur9xe0dpyRV5VoHL78JkXCuqSujKxICYhhUXl7n7DTAq2V4nOrDcYpjdp5bu3j4W+FM/IvhW1NOXbfw8OLmj16gFpGp/pcP0qoGQlOljjz9xXvJHAJRolR6xw1e8NKIMY7MyJemLz3z7Vfd8z+69+l6r9ufYsl6fUXR9SsXCi5fcxr9bJRX+967HbW+Tq4iMJdzT+XxcNP0qvxcXbQT+IZUKK856XryNJ0hKG2BAoAqeX5PtL+BXe4gWKjnAQAkfbI4iGmFNUkDAJjNpr79qiJdGuQDAHA5j+6jERrxprrqCraq7Z/pVmaiPkEgs64mVxj9xg31bnoeQhYfEArCyaQLfeQ1jUGIQQwAANfJJzVLNp1Y+czhTevzTiSXX8k3aIv1lxMvbli47b/FAEDFzfRrXswmdNXbn/5+wcRfP12TczK9trLYUJmu+eOVPf+3owyBKI0bPk3dmJKzP3PteAUAyMJG27f+lITJ02mEJwCgc8kF+CtjBgr9g2MmewAI5anv/3zoUh0A8AVp2987lMeB2Wl4wmT5LSV0CO8YNXucQgSu/KdNPyRXGHmQVBZmvbvl11IAyil2QYi8ua8WSjJXf/HOX7/57+a08xfLq2r0xqsFmd989+n/ygGADxkRN7jjbl1CUwBgZu8lD77ucXvHKaos6cIFoGMn+9z4PuxD8YFyU8mx4/fr6kHfc1vGKQAw7Xnv8EVAZMSIZbNkN74v4pXMihXDFCCp+G3/z9lti9JvcIIJeBNqqNBf3JrxypL9501IZGzGz/O5h0zofUI3et1+E4t0f66b/94HL3y/+T9/njhR3cV1d2eaAgAQuFvbfvlCuMICuNUH2/bkYW4iWEoDgYA3SXtkLBhQy2oLfbdghMAxwmf6FO+gQIWtHIHBWHKh8sgvuYd6uZ2KpkKnhIx/0NHfi7GSEGaDqeKaNi+t/M9Dl/Or2qmC1tIH5wWNiXBwc5ZagVBbVptzMm/n1tLSHrsEIN5mysh/P+XRcqWzAEuUNnL5EyviLCffdgu/mbOw6a6+CLCESB/wpgFVEgWdLId4f/7Y97NUph37E9bXLnkxdnKkgwMjaosqjv94fMOmkt6Nq5T/8ugn56sDPZV0rb7oePa3b55CX/zt/WhJ6Tc/PvqB5WYbxCuVE5ePmpng4e1kLQdWW1SVmXh245q8a+1GIWSq2H/Ide6CFk/gKQn+Et2VIye4iAUdlMFv6ehHZ/mGqOU2QBrKai4dz9m29sypFqdKZHb0eCftobE3/hcB2LgxhwrHNKdgd+yb+nyzJozMjl4fps2Kbsni5oEruvhojfsJHcW9h8etujLmxQcfmeLj5ygxl+ty9qat++B8QU8mWNLJz7/seznp90PHig1dSY9m7PnbyuCW/3mlz/uXVt7479Z7vZBJdy6LBU/SylOlEKEWAYDAFJcd7MCFlU/emV06y9kFVIP9AQoabzccPW2YlyD1DPdViVW1FivWmmj3UEZEprLUlDazbySq7ec8OWpcjPsgJxkJbE1e2emdqT+sL67qyhN3iqiMD37i0aHhQx2clcisq792+sq+DSe2HW+7zakpNSMNeCxsfrxfgL+tg5Jma/XFWYUpv2Ts3Flh0ewIlw/n/bzA2eIFdhhgqbEmWCZjZm9fObvlX93G8d9vKgAAUh/ut3l7gh8YtkzdsL7t9IiGF+MPrPBierpDlQ52nzzTPyrCxcvL1s6RkZkaq+75LetzC1rWbJv3Ejdj8n3p8eSXmv+1ynhz9Yub+lhnEmmH4ElTZ0bK97z51bl+W7QVqcAHA6wBmLzUpEuoeUlbcu1EYub4FRGUV+xQ210na7qfv3F0SBAFyJR/+I/q5gFVhML9+0rmLnGDqPAgKiutMXyRuTArqd2Yi7ia/VmF8+K8wclZLYUbnUO9etZba0a7WtQcxbznP5t342n6IsDSbePuG6cKribnj1jR5AmMzI4eEyNo7vSVg7V+czoqw20fp1Cw+6KlkWNinDwdrZDJWJ5VcuKXUz9trWjdP+FxCgB4RfqlT3dEfTPLZszy2IC9By6yAEBaLZ0w01Egddc2rC5ssMgNHFWj5wfGjHYd4mXj6GStYAR9Uc2l43nbN5w8md9U5uJxAX9+P9b9ZhE3kNnR7b1jc8cwxp+mfre24yfjZdlFf+bD0GDWwd/FQbzabN3t187cKlr96JPDooc6ODpaEbW6a1mlST8e+zVR3/0xBwnyqJWvja/Zv2v34eyabt9+c7rR6/anWNS1nZ4EG5Kw+9EJFrseTUOmvbVv2g35HQRYAgAA3uFqeeUQT/D1ZU+m95WBqvfcJmW1jyDEyCfjnp5mIwEA4M0GXiJXeEcoHotwH7b+4Je72R6GryDFhDcmLQhttFOyRi0HcsZtiJubv69VZdaXSdaW/uMStduK10eGNsZbMZvMosTG0360h0NkRP6/Xz93rq5nwzoyVxvyL9QAANCEm6+y0022ImOsqMi/QAIA0JS3r7UEhIrLtbVN0wmCLRbMvbSf17t7AI3AWO5w05aPeEeftzYPHqMEwcSbGdLe3336Ow9H+O1e/tbl2h5mLQv9eva/EhxJAADOKLX2Sxj5XrBib0X7lIRZbfvK9/OneNIAIJj4BqDt/V3j/F3HjDv/hsWexhsI6fvOli5IiIm335BdU692nRxM1O/I32mS/711OpGRT/h67qo4WxIAgDeaCIWXXYRX9Igpgd8u2fpjelOfS5iMpemlOTQAiLSzg9qRInX67CJjcz/AFjfwFvNFwlRXmF5qSwMAb+3l4XUzz+PuPhqIjMOc70euiGhcjRNJJ0X44vGfOYmPPJPVfecLKeMROuGB0ImLluacPHRg7+8pF6tv2qpQVV5pjggAgBjZYH9bEhqKs7Q38qUqKur5m9ZHkZGFhNAAAleuN96i8Qi2tSYDQOu+W7L/cJ4xYZj1UK8IZVpSywM3jBk+2ApEyLp8rMJy5o5k8VGrvxgdwAAAYk0NZoZxCvGYEuIdM/rIS8+cudxDE4rE6cX4b1b4KgAASKPJxCit1XFD1XFBUW/+/Nqm6nZWX/tn1s38S3DjJyONJpa0kQ+OCRocM9ipYu2nFv7M9deqc7IFUQTEyH39lZ34Aor8jWQAUo8QlRKgMq/0RoQPEZnqK5pmAbwiPe/37ISVwTZxM93XZ7eZhvIPJwwiQFKUmH6hJ4t/KP7juTdmhHyDrsHESO39XeP8XcbFD3p30R9HmqouL6/Q52SXWosAQCj9nT0YxBZV5OuaJzRkcXkPcu8MUeY5fOK0qVPHRXvIgTCc3EcD9DbQUWcQnLefPwUAlZn5rVxtifrz58shwk0YPGgQnDjb3eVbkfIPdgIA+mp+fh1q5daVnl/6uJuLlZufGtIu3kwGaaivQyACB+aWqSMyl5VcKGz0cZV7eDtag1BeXlR9IwKCWF55dyqqzdxd4xS7L0mzbFmjJzBdkeA7kqHP77tU7efXJt0dME6RQnzwN1+M82/qSDmRkXlE+D0c4ffA6IPPP5/d/mXc3+MUAIjZnxw6Ejd3jH/QM4tP/W29nnd0WLXYmwYy95uD+ypb5e60fNL7TYuPiDU16E2MwssuwitqxJQhW5/++evjZgDO7Ux5lolwUToF+sOxjq2ylCbEbjAjUOWlWXkA/p0VmLtRTsqiY+m/zpzxfjX+k2U+KgAA3mjiwEYxKEbxRIz6gS+3vfBJSQN0F7l9WGx86ANznrxyJvnAjt17z5Wb+qTX6oted+DEAoikvuJS4VUpAACydfd2oYj66uJCfdO3QFyJ3rK1tyC/VlopeIDCo1yV7tHnYZZ6yl2srBJm74UTnp5mIzEYDv98atu+Wh2LQC6NnD38iXnOYYvHzcj9Y3t+F5y524AEq9jIGaE0mHUHPjmx7Xh9PQAAsglwip4QZFPX+oU5KJ54fWSoCtWeyd74/eUzRRwAsgl0XfjcyNGDhjy5UvPy+xXdb2oAImE8kfvuiVyAG0fXdJaSt8r56WjOTwAA4OL8xjej1VBz8MPkRE3Lg/fWaFDm4gQAUF0uvamBVpTFqOPKy9av3PNLst7EKIa9GPvWssFui6c9f6JnEe0k5sdGvZ3gSII588u9/1pzpdREKeID3vl4/FSv9oml4z+eP8WTInUVW17euzFRWw+My/zQN94ZHRAy7I3Xrj/y/MXWzvei8nhRcoXxL+OGeq8+cWlmUAiIxxKv1ENIa7Gk7YsTX4qzJaHhzOo/Vq8vLjeBVfSgpz+Kn+qpevzz8dkTEtNZABBJXdWGh35pLLbV29N/X+xKns587vFWc1DLJQ6L9I1HAtzkPXT30RARE/hMbdWmp7dtTdQ2KG2j3pn49iw3ecLoh4Ozvuu2Z1HN2Z3bh8wcGzHILvCBmYEPzF585dSxQ4l7D2aUdvxJhZTnf0kBAKCvxQ85tW6svU6z7qGdJy1UnQ7rI8mIBCN3jnCcvHTsfE8AQH/uvHirSkPpQ5y9QESmityWgEmcw/HLmaawUUqPEZGQ1HK0jGx0pEoE5urxvArUXAbSFO7z+RejAxiuaEfKl59kpxebAZDrzLAV744ZGRf7/5ZrHvukB+c0UMZxQatX+CoANDuOfvB+enYFEJ6uUz6c9LcYm5GvzVhy5gfLDyEyVgvXzX0kmCJ0uj9WH/hxx7VSHYgM5RsfNG9FZOuhRKhds3/5GrA4uqZjqtbvX76+UXhjXFPT0VW/dBIAmfptR9azwYHu8cMCV1+3MJ+S+nC/iWoAqE3qYbxQQSivOJZy4eDhK2fPaOtMAEAqo73/+s7k6f6DX3ynIO2Zi0YAAM7h+KV/TL3UeMvk7S+8HE5f+2X3c2t0fW3vpH3HTps9acroUFcZAAAyFmcd3f9Hgbn/ggYJVnYO9gAAVSXVACBSCtehivqLJbVG4AqrTeBGS1Wu9nC2m4EkEa90c5MBAFtSXk4CiJQyyF1VWlhYA9ZXqq8L4IKUzu4kXLyZv7txsLs3AhDLr19smbJIC0/89/nGYISU15vvvxANhsM/f/F9qWXm3SvrHcbdNU5xxYnZecs8Yyf7fHK8sNEH+MgfBtOKNmJv+ziFzI6qVz4e58+ghqzsz1cdPpDN8UqryOUTXlvm4zJrwj/Si5/f1KY53+fjFDRaYj/cWDhqhefwpeOit+y9vDx2glIg8rK//KaN+55Amepzd5xKTLx66rimXAcAQKldJr8atzLObuGH41MmJJ5jRVJXnp0PE4JVg0Mk0MlGePdgdycQxaxr5zpdhCVMnk4j1QBAGsorLZam+qkzp6il0V8s81aa6lK+PPSfTVev6RCvlIc9Fv3KS4GDV8xekd6yJbhriIQhY8+WQ7KxsUOdfUY9tHTUQ3+5nnbkjz2796ddNXZHUDv6pNcdMLEAIJKFqf/4KhUAAMyzn12zzFtSdHzDyqMWjjydhNZjy6EOwEbFu9HQVUfjfmfAldXGNZu+2LOqcp4z204img9/tu+7VAI1vnZDw+nNyeA4d8VYxdjZqp3/0nXbA5Zo8BnqbCUic3rW5uP1N24Xay+U7b1QBiBt+bqEST1t0mgVMued+eDtIk1zytySdR+nuq2J8h4ZONZFY6k33oUIMnCSAQDU1N5ykoKS3tz232QzACCT/vwHiVUfcQAAACAASURBVB+r3T+Mk459NGzN3jahAuoDX1uW9Fp7Cc3eiQAgWfTYMAUg445Dr39ypbEf1CdeXO7kuOedYYpWd1GV0YOWhNMAwpE3fvs6sdHN0qTZevZppc3e1wLlCSOmrL645Vrrsjbokw/pFi3wnxhyMizOX6K7fjiJQ60HY5FRPDrbmwayamPiq2uKG6uu8XjR2yv3+W6fHugVOG/2kTNbO/bq7CN68GhIZCBp1fYfGrt4Xc2pVXt3xjzxsKN9eLTs2+xul7b46E//Ovqj9aAR48dPeHBMlPegqKlPRiUsLM06eShx18GT1/S9fHyRsX7m2BMPO7ZcQKaG01/u/uhWE0eRIVc+Fi4BaEhKT2x5AwJTrDmaD6OCJSGjnVFyo5ZFGtQukWoA0J1OtpwHkA++NGkoQ2p3JK5smSaKpTvPvwjMji+ivOdHxH55vfuHGLETH412BwGyzr/2cvpVFgBAKNbsfGaH054lj3jaznhUvfGV5mjoEm5+xF+DaYCGXSv/++mNgRmZuCs7z32YmOvY74FUOGHHhRMvhYzx8p0WA7kt6j1ynxmuBgHOnN+T3zMVBf3++M+/t7rC644Xv/n+8fDvx3jFhETRF9tFbO4XSOfg8dOmJ4wbMUTFiACIrcw+fmT//p2HM6vM0K/aF2+jcBJBJOobquqR6BLyr5VPBFBw5dC/n9l/rlZfjcAFKZR2AN099QApbGwBAOq19SBSsqUrX53jJDMW7F7+n6RCfU09ICvKyt7mJnIRZxc5J8QagDx36s8idPOQG/cYd9E4xSvTC5PzzSvGBQ7dwE+MoLnT+Qcr2n6sO2GcIudHxitFZKr49ukDB64BAJA6w9kP9rzrueizBJvhj44I2njwQqsS3OfjVCO8cX3y/2YtecTT96l3R5QluBMgHv7kSE7bXhGVfLDzudaXuPyyXc/vDzj2yJSWEFxC5nktCrb3C3IX4WpHz2sKD/YgQVqUXdyhNRgpKY8Iv9kvPTCaARG45F8sgzv0R2eOeKX18mXDFIBOv/+/15qWM0RSV3d+TdIqR7tNix0nPxr8dVJGNx0UtWmbPk3b9Llr1KSpkyaPjRzsHhW/NCrh0bLzJ/Yd2LHvYH5PnYN73esOqNheIKIaqAJQkmBvD1B66xu6KFbCAADwPOpR0JABjifNg14PAOBg30u/K8TbjFIH0SJcvbg3lWhVlXkm82yREXE2g1w7szt0CRVzixNukHL0WAUAmfFbQdvPWVKQWUSA4BoYOhDBbfsRBApo9P0x3GJVSqDKL+9Ksuy4Jb/tzNEBIUYOGtHtALtkbbB7tBoAzH/uvGiRM0fsuJjSblHQfbSfJwhU+ZU9ey0HOQ62nksxIZFxHhEna/cdqCOHz1WAKnZpxKRgoj4p+0TbrpaqivAe4QgAugO/FFrUV16Rnr87HQCE0NHe/T3J6/6j8ZKiKzsttmUikzb9PAvAOnnY9XTAJuqunN654cMXnli86vNNh85rTHLXYeP/8vIX32744MWFDwTZ9FBse0Rkqk9+f/c7a27p/EPbvzjpr2qB1FVs+KSt21hSyhUBGjwjBtk1vRqyJsI7AHhJ0dVTLWvbhMnTeXoEDaDbt76tQYNOvHzCRHBObmFtbO1deQbGaVQkDUDn7ky/3FKpRFJXt23vdQE4u2j/wS2rdeL4WUEyEM1Jp75JajvvQSZzZZ/G4+uwvJIKza4UAwLJmJnq5vosMsxDU5xFYM7tzNT05TyXszlTcxEIXqn09uxDsR0ic42a8ez/W7v5u49XPvTAYBWhLTi18+v3npi3+P/+9d2BRk21fzFbN67LcmYWkOAd6E8BgOijDrQRaYPZBAAgoay7PUYggWoc982sEfFK36FODABv5T0kgASCY3kAAIq52Uo0M3vuojAKuJIDX5/oIBTwvctdN06Z9idpTF6+M54bHMPQ5/edbzdxvxPGKdOD0YMIAHPSud2t9DFiz85zFUAI/p4j1G1uweMUAIikzrBuzZkaELxmRUQxN46r6VoZSF1tdjEAyDzUjYc/MMfPXmHBbB/i4iACAGlQe76b9tSOP6ePVwAAiIxicIhcBHNOuuWKLffgupWHrq48dHXlwXPP/fB9/MxguQhcxurfvry1SbOXnblEMy5ogqNAledv3tLW8H7icHYpABXpFdbD5VqhNC1xw/svPPaXZ/757Y60Yr3EOWTcYy/8+/vNX7z2VHyoW/ftdL3vdQdSbK9ALBhYAABF+w6p55Q2Hk9fr5f0SFkdaMuq5+XC4khbcBh6fVSN0/lSmaGHsX8Io89gZwkAOHs++7F76zYlSuSMFQDYKVS0CN0NBiFIr565ZpzkZ+Uf/upb8oMHNLmZtSWGjr6Yo8rfjgfgBi8a/+bMNi2Nt7EHQIJKJRdBvJv9pgS66RQc9hbLZqKQV55jsjRT8Nb5FVcADWPsfPwBWrkgdnYkAFHXtPOBqlErfUFEJu2l061yIXUVBfkAwZYX69VqJxJEIa88s1UBRFJXk1MME9SCh58dgjb+nKx7cn5yxYMPz4oEIFMSC9i2FhaSVdu5gkDqtJfy2pSTyrxUhsIdZGoHFxFK+vH79uTR+GJNXqvEoNeZETA0IxN6tzyFzHX5R3fmH93xnVNQTEJC3JiowCHRc4dEzxr19byPD6IevQdkqlsX9cU6AKS0co12n7Es+qF35kdMPvXqM8dzOtXTCMnMEZ8t86aBTXrj91/z2zyUWHK4oHiZj0+I1wjlyb16AOAfHO1vBVTrQ2uoimDbAAYAmDEfzRvWNguJAwMAVo6ebaruLSF1auUgJQCY8rLbDMDUuewrRnAjne38GGh0uBUZmxA1DSC9cuKyDg304uENyN93nns9bqR9XFiMIv9PPQBItNFDJjoKpK448Y/e2GRIh5kBj8wcEj7UwdFR1nrWQVhLO7mpb+A8nvho3UN+CEAwlJxJ3n9w/95jBXW3LxC0gLKO7o0OnawyHDlyvAZBH4VaFKnqSzszrj0bYn/t+OG0rj3e0FnPLPOTo/orX23aXXg3D0/d564bp+Ba4rkryxLGLwhGppIjf9SjtpO22z9OiYxykCcNwFzLLzW1GmLMzmfKLwE4gJ1PS2yhJu77caoRjt566pv5Q18OlyCTcVvnx9VIw70XPBY8OsLF3UnRuielaEYmgJkA3jpLkwthw/3dQxg4wlK10T5RjlIJDBodCYeSEadUhDqJyFSVdbrjLBrLbMi68OXzBw/kt9dU+7wzFwLDXZSAeBvXJ7fPa911IZGxUgHBK+XOSoDKHgi/kYeh6Nj29ce2f28XMDJ++uQJ0RHq6BkroqdP2LDs+d9KeqoA9aTXvX1ie4LZBMAAY8X3hZYoSmRa9xBxuC0gHq4U9ixo00Arq0Rtuu0+qBkdAqGTykMBQAe7f/Uu6b4c1lYlBTCDldI7oJM0ErEnh42KhPHUuW9/t39imq1bRMBjEQEAYNTqrp7THNmZezLf4i3bKqwAACgbT7uOluwEEAkJc3cbVgGgq8MGwep05lb9rGBV3lANAMDYtH0/TUcCdD5qILBhrEAkTKaatuvTBm27OBgKG7kIorltAQBArysHUPMKGxkJ0GZhBJlMf6Ro582yIXTXD6aY2x9kq3JUAIhEjaGd/wWhrTDyAJRSpmAA+tOVsfuPhgQd1/pJSTMAgNiurSPBY8anXzw2qNXFvLV/eSWpvm3SNjc2lGenHrJmJDLHhHB7EBma7n2XJuqMJYl5XycXX9/++PMxo959tWzRKx0GhiSIcUM//zjCA8Tc1dv+ubP9ZpjGA2yQt6NLeAzsTQSRoUZFyEVA55ILLd4MwTsplAAAlFuIq1vHhSIZkAB0ywKHzDa0EgCArS5r85NA6LhaQNYMbevUeNA0EhhKpQQAtrq8z7dodh3WLfHi3orRCx09p0yRHdlaj0AYMTPEFQhjSmZSzycKsqGfT/t4lhsNIJjqS/Mq9SazAHAj5pOE6GcPZ4JmSAABGgrTjh9NSjrRx5oqZZ626sAz0RY9vIgK/vfI8o3alg8pqTOzAACUhAYg6jVrv3i9MQgnAay8aT2d634UPpHgmsyytBUAmJM2f5LU9BMhUHRjpB9Tx95Lgu+YZ94a7Ulx1Vu/W/eH9i7fgtpt7rpxilekFyXlg59aQKfzDrcKDtfEHTBOUSobACD1FW06MZHScVUmAIZQ2LTpSPE41cLR82Wrwt3JWs3ptssNTQ+ifOzBr98JdQEAMFcUVRbqGjvSxghGAtPUkfLK/PLsCmKYo22wPxzJZieO9pfqjBpGGTzaHZIrSiJc1IxAZF3P1FnWIurwyi8+SgSRIeVqp6kvjXsiOuBvH9UWLzzeOqhef3TmrIuTXaNeGhDSmR+jpI+cArjqCycPKhQyuev0KDcJ0HS3tYPe9Lr/v737jo+izBsA/ntmZmfLZDe76XUDpJFNIIEQWqJSlKYiCgrYsIENX73TU8929+rpwZ16ejZOeE/FU8BTlKKCSFFJgIQWSBGSAEmA9Gyym012Zqe8f4SSZDe9EPD3/eQP2J19ZnZ2yvOb53l+z8AX21vN98pe10mIFHzqrhmgJwAAog2O7A3N6uEsCwOfYElfFxYGBhqIBHVW4OvZXsxYpjD1O7Ytfdv9yecFPZuhl+xfuSPvx6CJE4PjhntHRJr8TQbLNQbLhLCov235tE2vY6hdc++uLe7z2Zx36WqgfYJIIAKoAWj3aK9zUj/Mp8v03WkrF6z++RsYxuYey+jJJMW/RYrKlHTtrGlTJyUP9VEBADhLD27ftnEf1Ud1XsLLK1bnPbg80XTzmKtfLdrW9nehlNHmZW9PGq6G0x9+88y7lR7jSMI3/LTfcftM7/gJobClvDE8MDlcIXxlRttJawBAZipLnklrlVqjP8mDs8sl4R1ffFdx+yL/MdNj9Wuz671NN00xKaCkbyjq6Y5h+JtG/HlOCAvOzFe/+/vq0tpzF3oiGcwvHZnTUU6xvkGXb179qdfs6RMThk6a98SkW5eU5vy884fvezFmqQfbUG+vJBCtaDW+WoBWtzrZW++jACh2Ww/SLSr2+jqAANCatG3f0emNWlBAbKzxkNzWFZSy6NXrYzmxftvqd/+vRLjM7059ZZDfp5q2rswKn6Cr2JBTR35rDxd66LK4T3UNxYeHPvN8YhCQ099sf+XVo4UXEyurZnz7yB9atN4TvvrIUWHhFFNUskouZFPGePHp6R8HjPnjxKEhShXEm32Absg5Xdy6Cw/hRYEH4MW6g6dXP7Se/vb+RckpLzxVfM9rZy6kBe7Pi7lE70ifdG+3M6J3HR2YMGn6tGmT0kYEqhUA2XH2cPq29btqunsv7ulV99IU20s0AwAgSr2+RTRBRSUILBiNwBggNKyBO23s0dimgQ5WG4amwAg/kCpgw7aIsp5XEGW2zuoEYHQmrQ7qe5Jxt2MK1Xii8scTlT8CAFAhE4fctWSkxUd33R1Df8wsPpdLqc7eCACK3jtQhvaD1ctdEzgAOAC1ruNHszJrMKgUaJEjnGoM4LwAAPj6bp9pCtTzjUD0arWx7SNh2uTWjm2vdxDQuG0AAOgNAQBA2+ubPAXakvrgqX8ePNXeRlir7ABENnKmtu/IJn8dDSDbmux8D5+IdFFPv1pXKNTpDU/N3dC1hWnfEWnTp16bNt4SqAIAItYVpG/f8f23O/PqBdKXz2QUubK2HohWrR9iBmiVFpKS4sNf+ddNyQalYu3W371W0v6MevSuXTmNM8eEJA8NUar3T4yIAwVyiva2apeQ6Uq7DYjJmwvsy2YHRVUv2ABCgfUJbNPzjZINrBcohOft59L3KxQvWm0ABtYnwCDDJWxcVSq+2PvrotnDU0dOC897JzXmKoOkKin83m0YbZdJo2eMNAFxfPPTn1aWtsyy2RDO+vXFFneGCKXpn/894z9c4ITpN9ww7brE8PgZd8fPuPuRE1k7t/+w6YeMXiaHFFWbX5212e3lVj8h1VhbXQPgB74hPm0yVTARPmoA4rSW1XT79FFo29mzTRCjZUMCAqRjLQedNgz1CaUAwFZxpu20BJJv0q3L5qUYwfHLFx/841gPJne9AlyO9yliXZfx93UA7dxqBsF9SrTWAxgkvb+hdV2IiAbGVw0Asr2+x1eSK/g+1RWq2hkxyWpJVVL4xtNHC1scY4paHdB2lDWXmXtGnhIVYQnjo5Sx/mzunuM7/EOeWhI+wT/9WHwoBarjeWfaPxAU2uZc+fqem94eH7Jo6s2rV//33AjkfrqYs+WVDQAaCOBCALrfv7ITCquPnTht5rSZqYnBHAAAVV+0Z+cPmzf/cPCsANDtE6JnV91LVWzv0MCxAABN9l6eMQpdF7H9WwBQ2OCSG68DP0t9apn39z0ZfDLQwWpN8zwoZfnmXkSqACDrTp2sdk0OVA0Pi2fLDnR9YKpLBABQd+sXkM9mFL2pcP/8Y6QuzG8Ie6q8eXXV1adq6QiTKn6kWs7r/QOIQUmh7VAvQQAD3l4AHbVIECo6wKKGQy2mvmiI8h8KCuFrT3nu3NIB0VhoLQUSpzbFjAFokaFUMvjEtk3VoC0srJQggo0OSFRDptByYaMlHACo00W1SrdPdlkqrS0DKtRgiomGn1rdjcTEmEAFoLG02i33jKziKQmgJz3QPeinr9YNjDFq7NSpU66dODLAiwYAkMuO/rxjy/fb9hY2P03u61VTdLjRFwCAtK63Ua6owD9+POcqf7r2+y1PPnusw/YoV8COU9n82AnR5hT/dNOEWBa0J1tNWgMAon9u3a88Ga8OGj1FtWFD1+tSksADqJl2nstKhkLbSRvEGdTR8QY5o2X8KY6MH6oDmamwHj/fyEb4+pxCYe5oZeiEYYYPu5v2sCtkigfovI+WpM09szGXxMb7XTfHu3x0oh7UZ7YcPdjzqzQJCOQUUFUVVjlb1RFpkhzS7gx/wJxfYR+dQKBQjvJ961ftW/+xX+K1c26Yfs3EmGEpM4alzLzHemrvzq0/btqS1Uez8HkiM8VFBSL4MX6JUQFS2cWKiKwdMSIAAKjjJ0/24BQiYkFuJUyKEIZERXn9XNlyVPHoqGAFSNPZosLWW6IfPnvZrdcEAr//6w+WZ1deAeNTegTvU+c+1Yf3KcLXlpYKEK6ERQWroWXeMlVFckAMAEAP9m33XJ73qa4Qh/ubaFCgtDa31RMHujHcZ1TbtEZK6cHCWjAHRYdHTqajoXbVjqaz5hMlj00bNdXERbMAdfkHOs5BILJbjvy3cMLiKL8FSyO+frY5ZVc/Xczpo3klNggwRJvHh8P6tqmSe0zWR46/btr0KZPHD+UAAIhgz8n4YcvGDbuO1fRmJEj3r7qXstheIJIO9DQAQF1Dn5UplPkcrqy9NgQCg510sbb7TSwDHGLRwLIAAPbeVsoUuv6X4wUCAe2QmxboPITcKnVIoHttkrjqGuoAwGgM9e3gqPVUDVUTAACXfPFKrNj2ZtiAuCJmJk90L43IunB936Wfu2QkTXkdAICPsePaPCUGDJs9peVVyXXzTRYDKJBTktntVn/JO/fs7kIAUF19U2yL0Qwqx5yRqW417zN7ikqBEgOGXj+zZfIyBuaPTFUrhK/dl96DJDGusIzTe20AYLjutogWhxhtHx1142gAILm7it1OOcpqawAgUgDXzjDI7umfr9Z1xlkvLH/y9mmjAryIozzr+4/+8tAdj/75nfXnawC9wIRGebiHKWry+/kJKpBpW0WLfCEUH+771EdzZvrT9Tt+fvKJvM6yqSuqKuvOQqKog0anmlLGcErbSWsAQFaXlm05IAC40hZfY/HQEVD0jXfrmANA+KaqSgDQhkUZPF5DCF+TniMACHE3jR52sVgiGbzmzgylgLZlFBxvUVXd/k1eExDVlHFLUtvuEEXNGrudobTtt6jnAYDzCei0Xkq+/CbHBa7Y26bdk8oC1O/Y0IM5Zi/gHXUCgMs/ytRyxYpatfTuJPe9emFrbU4BQPT21/T1rUmszm5ODvn439ZtP2p1sqaIq25Z8sq7Tyf35xNbIub/9GsDAB89dkrMxRPYFTZhaiKjgFiy+6jHFk520ryHly15eNmSRTPd2ssAAEC3JydPBFkdNWmWz8W1QcS06SEAAFkH88QWnQi4yMl/vevaMEbO3rziL3vP9LQvxhUA71PN+vY+xW3POCkDqKaMvDGs5evy9TeN9AeZKijN7N/q9mV6n+oK+qytAQBIgHdUqyOKHrN0YmLbhcWQA5U5PFGi/e+ZEKMqOJFZei6Dg2X6mBHhMlNZdbSzpwaElz5bl+MC0XRz6uxzv2Y/XcyFsO+LdtiIog6evzSS87AAFRHV3XS0ROamPvnOn+6/YfxQjnJU5G79v+UP37Hg6b//e0fvIlUA6OZV9wJnxIT5y5c8vGzJ4w/Hc56+Ts+K7U8+YAKgmqCiL4fMaBvsAAAqdc+a9ga8PbA5DpT74G5ZW7n261oXESPmTf3jQ+GRPs1fhegCfCbclvDihzc+NFn2cGyersirpUHxn3lvkJ/HnFRMzYQnZr38XNy1Y7y9zy1AvOOCH1oYqVPoxl9P515oxZV0eev37q+lwRj6wLKxN07kzp21KjZijHnBs1Pf+HtsVM/SXg0qAaWnQVbAO7ixs3xvypSX5945Wc8CKGr1iOdmPD2FU4DsWp1d3fZMU2i1l48/6+v216JqLn227ogdFN2ca19ZGu6jBgCinhz57lOJbhdH0S+j6NODAgBc88rND89oDjA0/vNHrXjKogWqYUfmd0VtP9MVhK/7bG2xAJLvohmvLQ0PUAMA6Caa//T29DiQScmva772ULc4k1teC7SUYLljirbXAxT766t1h1R7LOPr91988P5Hl63afKijdCPdoKiNC9Yv/vyzaUsWR48d7R0UzvlG+SXNT3rq2zuXxLMA1Om1B86PIyUuf27pR/Nmh6udOdl//dMRh6HNYaPWe2g5lH7ZcVIGMvy21BR/SVVyKj3HfRnlx9e//5WnIGHEsvUzZk/UN4eWxMDFzx/1+Po71yxP9PNwAjsy91cQcFjuuma6p3oMAL1jZcYZoCAh8dW/jR7uDwBAhQfc/NacBeEK4RvXf1rY4vrnYtYd+HeuAMDOXnHn03efO8wUtSp0Ruzj6+ff2/25c1oivDW/UACQxt41elgn7asu9Tc5P/GUYvaLVEt0zq/fethjF1A+gR7O3xa/hW7PnuMukLmZk5+Z79884SQbH37Xmnl3hUvt5ylQH82pksEVOHP8df0zsY1iLfxp9ZvP3nn7g6+u+C77rKPfxyrrf/p562kAKmDs87dPjfECADoy5ZYXploYUFUe+n6r5z6CzpDQmMTImMTIyCDPl126KuvrnXYCTMAdd98z2V9Hg+QdkfDignnBAGLl7rU5jgvnqSpizKt3zYlk4NSez/9xuIzTqn1a/Wk7maPtSoP3KYC+vk9J6w7/aCOKOuD+FdddF68CIJKBG/XcdS/ONClAZX+amdfvte3L9D7V+feSM4oLgBGiY//wfHSYGgAI+PtctezG1+b48m2vpAptq88tpCRD+DWpXGXGqRMECG/bs99mnGIZCYpcUHa08yQxIqzL3FpFFHXwvMWhDEC/XcwV2lbz/ju/2kH0W3Dj+28ljz1/P2WifCYsTfvLL4vffCCw8z3kVizh+RNZGz587r6773v6n+t/Lu7deI8WunHVbcGlC4xIjIxJjIyN9VF5igi6Wyzjde7Srfc+v8O8DOeu58Y+ePYq+geDGkCsMPZt3+xzcV8PLzcDn2Cpzyh08ee7V3BXP3SDd9Ss5JdmjXK5XKCoVGzzzMKk2OOneMeW/xRP/J8w/6snvjFebHS5AJiq7TteWNV0MW5XayLGx941PvYukFwOwaVS61gKQAFryZoV5c6Wu7ratuIvGY+9MC4xMGzes2HzwNXoUHTc+daUxp4+1RsZ+cyd4edKYakQACBs6qNTYhznAvKq7b98sHWgnrVQtmKoSwTfwLpw2rug3acMpCm9MGtEzL0f3beIl1xqurnKXbF261sb3O+Uzpinbv/yKfdCRFV6xpTbD4kEAFz0yoy/jA5+baZ/0lO3rHvMVcsTk4GmCnLWF8TPTW7zQeGHp78Z/dFts8L9b11x91xecgKtUwMAiDn5r73kPr9ZF0l1b/z4RsItz000JT91y5qnpEa+uViZtlk/eXa7p06SrrCM418WTngoSjvjo/uvLrGV8wDgEnfueei1c/N0K2rTXR9dN+5cdUfyMgOA5D3zuveSG2UAAIUUnvzr4/vPjyzpp6/WRbZf/nLf5rr+mPCDktSqwNS4+alx81u/oYBS+X3Gc29cyO7Anp0Yc0MUC6BoEhKW/eIevalPvL7i/nfbDvg8s6eo9LGhEanD/IDUHyzM9fBjSeqDJU88veetv00YnhD7+Oexj/FKA0jcuS6+Ep1T7mnLmbxVv/w0a97V5mHP/vjgEzbJCTJTUfTS9T+enxdH1O3Mef4d8zuPDQuac9V7cyY28or6XJnigVe/+rhVVz0gfOOah9b5rZg/P94w/eVbpr8sOW1ADM1nkPhtiz2muXvCX+eHMgoAAFFzQQAAxvlrbpt+YcPe+PyDndAatXVd7kOjR/mljv/XkcSyEicPQPH2rx/+enNpmyUVVVXZ9zsc183kFFDnbDhyut2pdGiXOerlX9p2cwQAAN3Rl956fHUTARHWpX88J2ZxvG7q8tsnvyzYeDAaWABp36u7G56/ZqrnkmXrF3uyFswbFxD27C+P3F/SYOcBgD7+xn/+vqVvZ0V1lmZsei9j44cmX3X/JlpUoPjnZVvjl08fHpx0w9tJN5x/nTSd3fX3zbk9/lZUU+W/1nwdfd/NQ0ISn34q8enzqyNNZz7+fOOJi5l4miJGXTtcCwrAkAl3fjzBvST7F2+99FGfzfw+yOF9qlnf3qcUVVXlG0+nD3k7NSbB8uy38b/nReX8vq36ZvurUc9mfgAAIABJREFUq/t7NP5lfJ/qjKQ/WPT22rNvLQgZumjWJ4vkBpuiMtBqUKq++emL6EkPxLdZXjhw1EriTQyI2XuaKxHstj3HhJmjVaApPVjc2Hm9UaFtjf/++sysJcEhN6fOeOeLzdX9dzEXxZU7/uCv+euSIWFz0v46J03mnTxozk+MQ9V3O/+qQjn2vXvfwkprvwzu6PJVt/+KJUpAyt+fvG1Ii48r2qhnXlzWXFJD1sdz/3uod4nETkcEAxA4e8rQi/S3fe4yDlYBQJH2f7jzyb3hs6+PsMR6+/uowCFUVfBVZ6rzM0p2ZciU+6GjqKq2Z77i4hfcFmIJ1+pYBhTG2DI7tmTK/u9Pn54JGjnSLyRc489pVYJYX1pbcLD4u3UlRQ1tHgoQV2HZm49unXBz7NXJ/kPMah0HjVZ7XUVjwdGyAz+VZPfk8Z6i8tFGDze2brMhFyfIURhdrtiv4xRbbw6poY/VSBP8YFiYUtDuwGiFrjr52sLcs09OmJTqG8BLNSWVmZ/uWbH6bC86vfP7H/7qiaXjFs2Pigs3eDsbir7P+ei1DPXy+LlA8bwoXewZIKsKy5fd8lH20gk3TgmNDNBrgK8rqD245dB/VhYU9yj1WDPCN2y794vSu1MWzhmWEGXSq0VHZV3BjoIv39u3p21d/8JHmtbe+6XrydSZqQHhZtMwAAAQcjX0+WzgAFRwcrCl9UNWJsB7eEDzDyxT6qoWnVL766t1jWztu1ELLRG+evW9G05OGpKcHGQ2c0aDXqsW+Ur76Zyz6V/sX7/F2smsBJ1r7v4EEf4AbSetaUl2bch87OCpmQ8kT54SEhXg5QVyfUlddWl1/p7CHzccK/VwvEtc4dmXF369+Pmrpib7+RloDciMs01PJ6n0je/vyo154K6EsSP8fQ2sUG87c+Dk1lV7NmQ0udWoZHVp7b9u+einu5PmzxiWEG0yGoizsq6koHz/FwfXZVxYjFL8fRPig9vM3dpi3h3WYXCfaEdk16U/Bvwjdw9PiDKGRje399A+nvOfajfsOrZs5iiWP7vz617WLxXaxn+2cE35k6nzZ4VG+GsN0HT6wLEf3834Twb39PPtfUriCs/+6aHNi5cmX5Xg72s2+QMA6GwBvdqU9hGXtbZvg2BPqKIdHz5amXrP1deMCvXzZkRHbfmRwztXbz94qldxMuUo+ul3b1fdPn361ZFBgVptY1PlyWOH/rvlu32/uQlpug7vUxc+0sf3KXHLgUduOXv30jFXjwkK9tcR3lGeczb9i8xP11X1f679y/c+1RXCsWe/Xlo07r75sSOivPRqsbqgbPsXWStXn5qwZpLbwtqf804K4K2xVWaey37v8t158hCMHgvCsdyKrvX1Uyo/3Ze56JbxBvOCJaGbXzvTnxdzV8FrGxfuir7zLsv4MUHB/hot76oqqa8srDywK3/butPdv5Q1VfXjBbCfrrqD52JORF8YZgSqCY4Nrjm4SeKoYQBQOmyqqqnWq+xon69ArG0Rmyts8fQ7YCiB7PURewdu/gDUW3RM8d2pwJzWf77Nx73bWsRbd380x8R/8+0NTxT2/2go9U0/PvQ/UezBZ976w7r+r2ci9BtCR711x4dzjMKOn+fd2x/ZnhBirJMe2f2HaUz2xzf88Uupk2MsYMGKj+4Kr/vuj3e8d6S3K8b7FEIIdUjyGX96bhw05gSuzdL06XVSNqSUzk8A5ozhox9M3Z/CZUDHrCpcJIQAEAnqcVrLy4pUBLl2oMLtFuOl3RDaEeU7MRwAqo/uxxoAQn2I4sNDFs40KaDs25CLkSpCPYX3KYTQ5UdhT4+MBNoF2Tl9G6kCAN1QDwqAEmCL0ffg4wPRDVjRxJTMHA6sDgxaoAjwp0wnf8PpCC9LUsTBg8XDrwFLfMORdK+B6ciuqHWz/zdZvevXH3dW1fEAAFS48YG/zUpRg5Ce823hwE48hdAVTVFrJj2XOlktMSWFG77HGjZCXYL3KYTQFUHRxUEUC/XZgfl938FdEUvhlACRaphwa/EIKzgFyN8RkdfVFQ3ImFWiBT9fAAmcdVB9WnXgoKH7TcDoEhNPeO/S1YfQDgN4VQ3QOqnQqaNvXTDqEV6srGhoBMbPrOcApJLSt/6UVYM1AIT6gMp194SvnrJo1Gq9GhSQfnkjY78w8HniEbpM4X0KIXQFcPgIcDSbLs7u82ZVAACqyfzzthJHIph9QW8ELwJe3YhAByJYJU3ZESuzB2BFqF8ZS3KMJQO4PsILuz/c7zUpPCHGEGA2+fJCfUnVoS1H1q7MyR+ocBmhKx1VY9D5GtQUyHUFZT+t2rFiQ3+n7kToyoH3KYTQFcHrTL5Xb2ZX7wwRKiP2bIM9Pfns5Z0NGA0KxU+snvJEfxQs5KxMz1nZHyUjhJrxQe9uue7dLZd6MxDqX3ifQgihy9PAZgNGCCGEEEIIIYS6APt7IYQQQgghhBAadDBYRQghhBBCCCE06PTvmNXJ4xuF09zRPE2fl1wr1vV5mQghhBBCCCGEBglsWUUIIYQQQgghNOhgsIoQQgghhBBCaNDBYBUhhBBCCCGE0KCDwSpCCCGEEEIIoUEHg1WEEEIIIYQQQoNO/2YDRgNHManj55pGjuUCg1QsK4tWsSa3MW9TzeFsl9h2WZVtruF/F/sx4FIV8iuWnqluu4Bm7JqIyaYL/yUyyKLVVVfQeGxTXWYW71ZgV6jKJrOvPxPGgEIJ0o5FRfusF96i+EjdkvdCgwAAIPt3x7bkt/hYonfqQsPwaI2eYySHUHfIcXhN9cGiC5vAUA8EPDmPUznE9QtP/iq0WSkRTdqbPglPYEnNyhMrvxIIMLUpuudeCfZudzup3GfyN2cT0eQ1Z01IPACAquiVvC/T5QtLKKz6qk+GpJoAgK77uHDF2q4XCwAqfoHxhXt8KHCpCp3/Wnq2qsV35ReYXrhHz5YI/15SWgbqyHeHzIvqaJ8CAIBTk+n4y0vVUqcLulFMastC38Qk7YVjpq5YOHO4IW9r3Wmrh+XpSK+UuaaYURo/E8UISlONqzzLnr2p9njphZ2jGvrmsNss7a2QVx9uev3ZikYAheXS1oSlcQBAil85vrbV7tVOXmMexzFn/pH/n61yt4rtMlV5qvqVF0O9Ol+SZD96Ys/c4IenMKpyce2S4oK2xxglBOlmfxiayBLHl6dXrGoQQeV6wP+5efqWTwIVQWksd1UcbjiwvupEeYvXWa9rN4aOaX/tDWtK3/3EQbrx1ZrPCH1nzyElxip9sehkgdD1k111drrmrd+FEJB/Wliwt9URQvu8PHTJWJE93Pjms5UNAACqgGUR9yXRCgC/sezt921Kiy0MXRZ5Z5Is76h6/W91CnQXG/3u0FuiRNhhXf632g6X9PBDtKBQgrhp3omccz+oqmwy849nzO3vavmnhQV7HNz0jWGjOt9IpmZlwcqvhO78cAghhBByhy2rVwJCpZgWrBpy4zzvCDOjYRUKCGtSBad5T10+bHyQ+/JKXIpJBUQGlSuKi/ewQNvlKSCsiQ0Ya7zqFfMjT/i0H5J1aWtlVh2b1vIxCaWdbAjwsCStzA24f3nQuCSdN0dRIKs4xj/NMP0fkfMms+fruEp9lq0eKInTREV6KMFmoSNZAFAKM3tccWyKTDWyLcpsSFQnmNpfvKtUrih9clzvy+kZSknxXrhqyOzZ+pbHTEASN+oen7sX+7gtr+IWhCx+L/SaKbpgE6UCICzRBbPDZnvf+mJocK+2RBg23UfXqxL6m1i1uuqIgxGC1FNv4dyCK9q0wJjESozVuWNNQ3vPcQhLODM7bLZxwXtR0xMH8zPCvj3ZAUDirvKJYztfDiGEEELIzWCuNaEuoYQ47V0vBgxhZVLGZ66uPpLprHOBOlwXMVk3fqbBbXkic2qLhSKC81CmMiZNF5nK7mqnBcD55Zn3VjUooBCW5uI4yyLfNItaOyPg5qKGjzb1LPaTaYdSoxJDU311my40haniUznGKlebqBZBEsVHqu5bZPIGIuTZtr1X8WuprIrUpTwaPDGKxCwNH5dflFkOAJJXvpLrgDQOwhI1Sr6zzVYFJ3rrQKRLhGOlbbfk8DNFv5S47R2BCI6WLyh1tZTvOGMUW5t3rgWGDppsMoJirSVG95iuq8WeW3jEjcZt+XXtNIryp54peOdiLZ+xJWmWPhPsDST7mcKfSuQL35QIcjebVYloUl//bFAEpyglfMYnVUcPN9pdlCqQDU7SD5+uHtF2eZrcaLznHr0XEOdh289rrMfzm5wqxmDRRk/nJphVbuW76EzbO/+odd8qIshu7Z+MkuQ7Oqh6d7nb0r0qtpOigtJdH88tUC7uXpX5xSE3WQQ20/HWPy42UxOBCA6ZBeHbjfVxC/U+twYlbS3KbtkpIJyZP4VTgCr9vCTXAS0OP4mxutYuKj4lAABFB6mDJxkm324M5KQxz4aVPnAqr9XxwNR8fOKzrbz7OaU45G6eaKK0uvy9ry7uTVnNXfVhyGiWrvv45OoWqyACNLVoJe6Hk70ZLZpUoyczeVt71CGjD0iMVVz/SEmx2xtt9sB5yr5HCzPdmmyJoAgOINCwa27B7ouHDQsLfR6drWOt4jePlJxssbzY7R8OIYQQQu4wWL3sqeMeDR7KSlS5+PXvS/LPV6PFooa8oobcr2p928ZITN1YKo4V6cP8rvSGhDQ6JMXEfdVeF0oiAShAQJDrs+0Zzwr8v4ZcFyyETff33+TeebgrFCIIebl0WpLXCFPFPisA0E1x9OhgumFL/ekZhhbRHx2wMCSclWiruOnFs801ezG/6ce/nPF+z2zhqAk36LNW2RUAIgj5ua6rxoJfkje31tn6i6jMSZwCStPherdQiLhq5UZPnV3bLHZqd43X7GBLCpWXLgOAwjKjRtFMYVMu6FI9BKtdLLY5aCe+43wSuLpsD3EsAIDkkBsvviXbzrXbyVKD2NT5KjpAK9P1IzmJscobflecc24VMl/qPFXqPLUJ0oNaXheIaFLPvsfHCxQxs/rTl2rOVeMF0Zplz8yyZYer3fpnKESARmtXQmiVrbbBy0eTdAP3y6pOO7t2vdgucThkaLF7m86tQva0ChHW1GVM8r46mJq8UJ/7vv184EWHLQoeykpUof0HTxGdLIAEACBL5U3Fa10rHOLTj/ppTeyYKUzeppbBGxEdriar7FZATxBBbmwRgyls89ehXC6p0dpBBNXnJzsAEMkq8CYSMd3PtLW8V8dsryhOa9cfZ8gdnsJEcMgtHjyJiqMHq0AIIYRQF1323YCpoGULdpz6n60fDKeADpif/OK3d31z7PHtpx77atttLyw1t+7DpjLPT3nmq9u/OPLoD6eWbsy85623UqfEu7cLAYBimGH53WfzPz2y9LtTj2879vCXPy/867IJ10/Udn+EVb+i7YmqSVG0AuypNafz3SpYxCrWug3jDE/x0YG6+nCdcFgqEBjJwkVzXVoZEaTcLAcBRjJrQnrer48uTa91XOwJTLhUQwBAwU5HywhBYZlRo1QK0I5favJbRBRsuSvjkIuAxKUZw86/ejyrxgW0HM0Na7VVRDQxsWYAoEuyGnr6wxE+iy8QmiJTjTQAAGNNYRJMmqrdtooeFthMAbtwMFOQOXXyDHbgD6qgKAMNipxbl+8pTraXt4yjGDLbK55TKEHe936Ne4MTXyo09WJL6nfYToHoPdUvanD3FCWCuHNtZQMo2hlB4871nKeEOM2sNJUCTN7K8s4bhkFUb+WPOADAFRDpNcib3froZBfp3MasMka0GMZ46KX/m0Lxsdf/8fn/ffHPf37+9mTXILuRIIQQQoPVZR+sXqAZ8tyM/1ueNineR68GAMoYHTj1pmE+5+oERDKYrv389lXLJ05L9vc10A5e0QR4j5iT/ML6u343o00ISnstnfXvFdfdkBoUYiAuW4OdB5M5YOyC5D88EEUNrkoGpU/19gGZdjTl7uxSLzuFZeJHaRRQTmU1UVbp1xIis9q4pC4eB4QHIgEAKL04cGR6t5Dn4ENTfXUAAKr4VJ2q3JFT2DJWpZ2RdAQHAEx5tqP1Lqd+zbdKQEtBavO5gaOSIUsqBEri1ENaDQFlbEkQBTLtcBZk97jNSqFq+exChR5niGUBgApPNRlB/DXd2etWMHJ2U1UV8CGT/f17W1S3V62wAKAQlu7C70iGp5goEOk82+EuBGTdJKtKnXsPg2TySkkZ5BcjUbPVuaVQVliYeLdJAwDARi8ODAYJdlf90LUDjAiizQYAssqLGuTfto9OdgUEKX2XVQYYMd0wyOPzfkYJpoiRoxOSRiSkDDVdqi7RCCGE0OVm0NeYuoYoUfFPLxnuPHD0g4fW3nvtqoXXr33h9b3ZF4cpqkYsv/G5id50Zfnnj38+N/afN8e+N+Oqz5d9X8aruZv+NnOa38WiXP5+jz0WYwJSuvaH+0a+c9PI/7tl5Pszr/r0hdez9pW6SI8qXDTLcZzO2NEfx3Es3f2SI6J0FIh0cVOJh8FXHjbEGUlZTBJjbSooBQDp5GG7DEL4uWbDTjHRFh0FMql1b7DtOiK7XNmHZLDo40x0UxydHEw17q477Wq5DFUXREwAAFJdeZswQJHKXY0AACqTufkVmS0XjxUCgBKR1DL/jRye6KMBiSqwu2Vw7ToFBDiaXs9zXpYUWmFVSeNoprDhSNsRsD0pmeRLe0tUrijD+AFPs1RVZJOAUZK8p6V0MhJAYVXhZgBQ2Qub2umt3Eti3taKRnAOvdGvC7l5Ly0hZ2VFGVDUlMBr4mhnKjvTQhGBpH9S08X+nwpLexsAgHI1iH3T5bcf9cnJDgAy2dp4TFA0UzHNEkIIIYS660oZs6qKDgje8eOD92aXnwsmHZW5FXtAYQgBYKonRj810wh8w7/vXfdZ7rmPyKVVPzzxjd78yKPxUbct8N36bg0FAMCUJwQkqBXCl3/2an6xvXlZIpTW7nl3354ebp0Yev+b/7ohrOPqKeXY+/ztrxzs3iN32tcEACDXCrYuLU8xqQZ/UORcxykBAKA621Y/T+c/Sj+ErS3qqEpKaSK9hi7Uz4oCAFK/s7oXwZoCApxIr3WkhcanqfeHm/yBHE23K9CyLzJhfBgVAIDS0DZCkr1rwQHgBbT+YnAjHj9sl6M0pjiDHhwN515URVo0CpDyLJsDwO0hA0lZGZvS9kWJLhc+vaek9beTNOlNJxY1xaSaBHAmcZqq3WdrATyMV+1esUAE6cDW6hmLfeJu9Pk+30PeoH4jKhsdh2abkjk64ZXIoXmO45m24mxnSb57h15KCARfFgBU9RVNXe5VwIppvk9t8XV7nS7/x6+fbG1zHkhe6dI+KzMpyZgcVPlTR4233Sq2P0jabOfm3c7FaczoRcG8j8YIpHHj2b1dPRkYfrpmBAcAqsqixtY70xX4aOQzj7p/RNl7z/EO90l/6MOTHQAUqlz45bBkGctdojRLtGiib9sS6/Z6e5Pf0GlrYtPavqgqXp6zdmf/bCBCCCGE2nWFBKsK4ev+++qFSPUCIgIAuJJnJw8BcO3I/CK39du88u2Okw/Hm6NHh+uUmtaZZFlfbwB7v252byks0RgAgHY1yF2rqtMjkvQU0GeymzPQiqZspcBBm0yquEgoym+7tGZeyNPz2q6zcXftF2sae9cbWuIyhTwHn5LqOylQrSpvys0HaNXqohhUzYemLPJtN0ARKBcAgEJ7UQDN31upz7LVz/PytWijWDgsAAAlBJEYM/Ru0ppmMlvuOlioxI3zmsUa9CDu2eUkoO5VkedI7BbnkUWQMs6YxNUe6J+GS08Uxtr449Nl4jMBKWaas3CjLNwoAEWQKnbXH1xTc/TivKlE9iI6AADF1dBP0aBCBCFru/3qefqkG/Q/r7IPro72bUllq2ryxobGJTHjQKKt/Lb2p6sBAIoFWgAACoLUYZP0U283aUFirK6DOwZdP9B+O9kBQCrZVF031v9Sp1m6tET93vcXzn2/+T/a33aXaIQQQqjLrpBgVaYKTv5U6KH5DAAA2LgRJgUAkhPf3Gxp/RYBg54GgACjP0ApAIAYcqDsoI3MMvjc89HNxi/y9uws/rXQ2TZi6h6m5IMHZ37QqyL6AiUEMQlRACCdyDpXVyaCK7dAGpdEhqRySn7H6VhlyipnvVm6I0voddSiUA7pQK4yZqxuPEDjRuvp3hbYPIENSeM0QxLhcBYA0PZETRiIjIdJa5q1N8cMeIwZj6bX8xa/MWkuprAhp6OWrm4Vq1AOIXO3kDxFlziD3f/VQIZpChTZdi2xZyZ6WVIN5iSV2axWs3TQFNMNaSbLeyVrt7adBKg72p1jRnR4PHbkpq31p+bpYqb6RK22H++zYvuDzJY7N2+0xs4zUcCcaTtdTUu0aKLnbWzToKdQAhx+syTHLUe3x6lr2pnxaAD04ckOAJI+i88sY66zGMdElm8r6oMSu7X2dqauUYjD4xnnYeoaIoDL5WlZhBBCCPWvKyRYBaisb6+vmqJWBxgAAJgAP0uApwVAVtQX9oRC22r/+WJ65CupsdHmW5833/o8yLz99P7KfRv3fbaualA1tRJBcdoAOKk5X0tn/UiZ+lR1BIhMiVB0MdxSig7XS0l6Y5LRHxxtJqho2nj2g1UOBYDyUYfdYrp+Npfy+zDr704c6IN+iXLJzirn2BA1UIU73RvTiM3VHE5TTNsmTEJYWQUAQKQWbX1E4I8fcl2VBhGJepJlV4CYE00aoD1NWnPuE12bY6ZZc09giGHV1bvPVrf3VKTbxQKAfHprTfkUJnS6X/BXVe5TQfYzpTHbvj/bvh+IzDHBad5jFhhHBFPDHg1Pyy5ILwcAhWpQGgEAiOpiO3bnxXZzjhlZXerKOAyRSV7Jqczx9L4qtr9UZzvt88Ab5JLDXW20VwSlqcZVnmU/tL660MMR2ZdT1/RMf57sAKD8sss6daEx4Ub9zrd6kz26h2vvu6lrEEIIITSQrpBgleL5Jop0XJXWHH/9gwfftbWbUupirVN2bTjwSMav4+bETxgdEpngFxuuN6fqzamRqZbND/2pqAdNHTRr9Ol8ehix3trQzVQmUo0VIBgoH9YA0Gn9Kj7FpAJaNKvu3DK8xcsKBeCKUg0Pgt2tK6ZEAFGQFQAobzrxvvi5l2rxFNV1TwcW/76ip/MuXtxyLpPfvsUaJoj73bofAyhirSADUEC82u43qt6neXirZG9o+TrJz65xpfkYLJwR7FYgsXEqBaheTFrTksyW8/u+qmsyKaW7etPk6E7SZ0vpJcwtZu8xib0cHNgbCuVwVWyt2ZDpEFeZkzh6xCTN7rVOAjJbQWoEGMa6vAO1BPqvj65ydGuVPclv6HQfffqgeiLUYxJjdX2+sPjkpd6OLurCyU5c0GnvZdLORdil3tiQN9c78Sr/4StLMBJECCGEUNdcIcFqRwjPV9oAwOXrr6ega3mIQIGqhn0r9+0DAAA2PvzW56csmmgMWTRl/hdF/87t5MNuxND7l/dPgiWlvNBBLFopQmtmwdpRpEtkjk2w0ApAO3NRULEp7C+bOmgpkspWVx1NC0+wmK5NrVmb3stBdwrlEI6+VXnU87uysZxUAwQBbQyioKjlniN0kEoHAOCytupt2zyBjcoSRYZxVIYPExks0w6hF5PWtCGd/aTibB+V1Zp4YGv17MU+cdMNW3o3eWuvKYxVPFQgjUoSvc06Ak4AIIJQWgIpUS59lJaD1s8H+pLLlO7KsjKTk4yjw7vcBob6i8eTXWEFSgCPw7WbrygKEeR2essqjNWVmSmNSNOMnqLe3k9bjRBCCKErzRUydU3HhPyjVgJCQHL00B41DAm5p1c/9O1WGwAYY6JUfbx1vaLUpdfVAiVx2vjJHT94oB1JJIGVaYewZfax5TNa/hW9u8NJgA9MMXTY+iuz5a5dO5wEhKiFgX4dLdl7kqZIKnYAgBiUyLWOn5WoOBMNEl3Ot26gkdlyIa+QyKxmSJLKnsSYQYLc3kxaM2BEry3ObAdh0owTOm9+72+K2/Gt/JpllYGRLIakoH5cMRFc6dvtMpCk6TrMPnOpeTzZZa9a0twnXN02YJU5llaAcTZI7Q/tlE9srawFIWy6MbiftnpwU1T6IbGxltjY2KE+v4GnxAghhFCf+E3cM1W5GzNPL5gempDw4IKDT69r0xOYSAavYd724vNdMBW1ouKJW7uhxAAASDz0IM9G/yVYkrTZ0s5CaW6UNGRhWFzmqfzWHewUE+PraJ4mkQpK9dGBRBU43KaoIaVZtc4pwdokQzRXnd1RL2epalNV8Yxwc5R6UmrZl+n9OMSOCK6jh1zj0yjuKt+4T+x557aKEoJUqaNUCiiNu+vc0jLJRYftcpQ+PJGL8TGqQF2e7XHSmsFGoRyuPfv4MVP0CWmuHsy1232EStRFVjQVtJ3DlhKC2CQLrQBdV9KonNt1krS1IW+uKYGlxj3im/dSTevUM4omSE3K3ee86QFJ2Ww7OY+LmWqIGVRPhH6j3E92WVsinxHAxNLhiQyUX7hGEpnTRkYDgLrFYeOhQH2WtKeMnhXFJbvPF3Plo6Sw6b9/bWEoAJze/PvHPir+TTwpRgghhHrpN3G/FL0yit/43kqAGvvy7X99MmqYf/PrlHF02PX/e+3K3Q8sGX2hdqwpmTP2s29veGhxZFz4uRepcL8Zy2dONci07cyedrO/XCp87nsVpQItBaluetM8ZTJn4ijCEi6Si34gaNGqIRYfAACFpeJHaRRgrfk2txGBouGwchKIzGrjkjo+IGRdkbgrUyIgxM4Ncp/vsk8pp7+qLgVaNKlnvBhiiaQZlmjjdFNfCBrJybRDytjsPn5Sqc+y1YPIJRknWFQKSCc6mrRGUflQOpOHP5Zt9zNd2eweFStVb6opB5fBRzMgGYFV9iTdLR9G3f9C0JhUra+JqABojgmebLj5ryEjWJl28IcuDs2V2XJ+8yf59t0AAAAJv0lEQVTWRiDMWP+7loWMSmQ5FiiW8k7Uj3o68MGXA41tyycKCx53AsdR7R9hMlsu/HxYkTna6Hlf9azYy4LCcCqt5692qTbJ/WRXGKtr/2EXAdG8ZMjMG3V+HEVYyivOK/WVgPGcQgni4U5GdIv7t9bKQIztTFLcLRRL2jkYaLdnHUTT1SURQgghNKj8JlpWAcB58JlvXve++YmJxvGPXT/+MSLwTpdafb4eSCpatZcS7/jIW+Mjb32eCDzfyFN6A0MDAEh7Xt/2Q68zC/U1mc13/Gd5xcLfB0YEa1OeCUtp/fYJAADaGclYTABAig+71yYVxuoqLIHhZiE81UCn13WYbVU6vqm8dmyoyWK4KqX8m6z+a1yVtPmNX66sf2Cxt1eS/sb39Be2lgjk+LvF+8rdG3Akr3w46mCuNkNCR5PWNKOSlkcneXidrvu4cMXaHs9T0XGx7QXPkjZf3FsIN0X1dLXdRmSW+KV5T03zbv26QgTl2LulrXevRL6yfuzF3LFQ752kn5akn3bxLZEpce9prZLG+j6yxv1phkw7xPULT/7abt9suWhTlT0pyMvzuz0udvATfe8x/8897q87NZmNr71UdYmmTXE/2cUz/6jcvTwozUyPfDR85KMXllSIQI6/V7zXw1nZkkhvdeTd7pPQq+dBzRg5ze+xNM/DEfYtPrbr4rlPiyZ69ppoj0tm/+7YFg8J3voDEbxoHQAAuKzW6kHf3wMhhBAaHH4rwapC22zf3f7pofkJd86OGznC39egpeodZyrtpblnsrYc2b7lwpJ8yI68P70KqRMiYkf4BvurjWrJUVlffODEjyuzvjnYNCjrGDJJr1uT12RZaEpM0gUHqVhWEaxiTW5j3qaaw+UAQDGpBn+QaYfrhOeamVSY5yBmDTvKewjUdTgPoqTPknaWwC1mcfjCAFNWeX8m9hT5r8o/LGm8aq53TLRGz1HgkGpyGw+tqTyUL3r8IYjgPH7IdU2aSulo0prBScrcWX19lN+AnJEC90nN+4XOxBQvs0XjF0RrWYoIMl8unslzHPmq+nip7LZ7XfZPzq7K9Bpzoyl2lMbXRNOgOMuE8ix79qbasj7bMNEri8+ywmRTn5WIesH9ZFcYa8MvS08V3+I3Jk0Xama1rCxa+epDjYfX1Bz1cNi0oTBW195M14g01UDOKTw4SEExI00AAE07N3zXQAb/8ASEEEJoMCCJo4YBQOmwqaqmWq+ydnKz9tTk8Y3Cae5onqZviwWAWrGuz8tECCGE+oN4zZ//+/gIVj62dskf/1uLoSpCCCHUJZf5SC+EEEJokFNUSSOHsQo07fzvhhqMVBFCCKGuwmAVIYQQ6keUMCwhngPl2IY1BzvI+oYQQgihNn4rY1YRQgihS0JWH1v70Ny1AJfBVFoIIYTQYIItqwghhBBCCCGEBh1sWUU9p47/0DzLTHdhSRdzuOHtZysa+32TfpvwhwAAmnsi7MEZ2i7sBZlyiN8uPJFz2Ux1cwV/NTx0EUIIIdQBzAaMEEIIIYQQQmjQwW7ACCGEEEIIIYQGHQxWEUIIIYQQQggNOv07ZnXnXp1Y6wRw9utaEEIIIYQQQghdYbBlFSGEEEIIIYTQoIPBKkIIIYQQQgihQQeDVYQQQgghhBBCgw4GqwghhBBCCCGEBp3+TbDUTNEmltw5GkCCRjtUFnsdyPatlQZgvQghhBBCCCGELlMD07Jqh/JKsDaCzgjDkhpuGN+gHpDVIoQQQgghhBC6PA1EyyppOhGx6QQAKLqEkvkpoBtaE77XqxAbVxFCCCGEEEIIeTagY1ZJQxFUAigs+OgGcr0IIYQQQgghhC4vA5tgiRKgSQIAULEDul6EEEIIIYQQQpeVS5QNmFya1SKEEEIIIYQQuizg1DUIIYQQQgghhAYdDFYRQgghhBBCCA06Ax6sigCAY1YRQgghhBBCCHVkgINVCex2AAA/X3FgV4wQQgghhBBC6DIy0C2r4SeKQVbAb8SZ8WFNHD3Aa0cIIYQQQgghdFlgBnh9VP1B41aom5AAidMqEwHABpu+jDg7wFuBEEIIIYQQQmhQG+hgFUBfFxYGBhqIBHVW4OtZfsA3ASGEEEIIIYTQ4DbQwWrD0BQY4QdSBWzYFlEmDPDaEUIIIYQQQghdFgZ6zGpNUAAAQFm+GSNVhBBCCCGEEELtGOBglQaWBQCwN5CBXTFCCCGEEEIIocvIgM+z2pwAWJYGer0IIYQQQgghhC4fAx6sIoQQQgghhBBCncFgFSGEEEIIIYTQoDOwwapCA0MDAIjYDRghhBBCCCGEULsGNFhVuEgIASAS1NsHcr0IIYQQQgghhC4vAzHPqqKJKZk5HFgdGLRAEeBPmU5iyypCCCGEEEIIoXYNRLAKRAt+vgASOOug+rTqwEGDcyBWixBCCCGEEELoMjUQwSppyo5YmT0AK0IIIYQQQgghdGXAbMAIIYQQQgghhAYdDFYRQgghhBBCCA06GKwihBBCCCGEEBp0MFhFCCGEEEIIITToMGqNBgCeTokEiARI6fQDH3/8cbdWoNJqe7ZlCCGEEEIIIYR+sy5mA/7X2lWdLv3gggf6c2MQQgghhBBCCCEA7AaMEEIIIYQQQmgQYnins/lfzvP/6FhTU1N/bg9C3UBrdCqh0Sl3sITO5K1R+Lo6RwcLAQAAxer0Ksnm4JV2l1AbvNUue0OT2FlZCCGEEEIIod7CllV0CVGagIhhYcE+2lbHIa3zDxkWEajr9ONevhFDIiMDOxgVLau9/YKCAvWaTrdEGzhkSKjZHMi1d0oojDEoLDhsaKiPqtMNQwghhBBCCPVWq5q5pPPLHjr8LBdzVmP+mRjvENttY0KoL3C+PpzGoFW1bqqUKJbTcD7+po6jQsrbx4cGvr6uL9r65abyM1U8qEyhoQaP4SrFBflxoPCV5dWuPlgfGgh6s8ViiY/u6HHGIOVttlgs8VH+mv6/BjO+wywWS0KEDz65RAghhNBgw7T8D5Fc2a6mWBUTrtNGsdq/W2lnQ/VXXuRSbdwgRqkDh0b6qkG2lx0vtXroFaoPjgk3MSDXlRw/23A59hqlVBotx2m1Op1Oy7EMIUCcFYVFNbz74UAxOs5kMHpxGjXLUARk0cU7G+prqmsdYkerUPn6GyggDdbaNuGfvaqqyRDi5R+grz9jb2fnEZ2PvxcFCmgDwsMuvOisO11l71n9XnFUn6nVD/U1BAXq7WVtC/EKDNUz4Kw4U833qPR+J3PBlggTBc6aghMVrfenNihmqA9DhKqigionns3uFNYrwFtLwFlXZRc6WZboTH5eDBEd1bWNl+N5jRBCCCF0Gfl/fBQhFpp17IUAAAAASUVORK5CYII=;" vertex="1" parent="1">
          <mxGeometry x="-103.8" y="700" width="827.59" height="117" as="geometry" />
        </mxCell>
      </root>
    </mxGraphModel>
  </diagram>
</mxfile>
